<?xml version="1.0" encoding="UTF-8"?>
<svg version="1.1" xmlns="http://www.w3.org/2000/svg" width="320" height="320">
<path d="M0 0 C105.6 0 211.2 0 320 0 C320 105.6 320 211.2 320 320 C214.4 320 108.8 320 0 320 C0 214.4 0 108.8 0 0 Z " fill="#FDFDFD" transform="translate(0,0)"/>
<path d="M0 0 C2.24145508 1.05639648 2.24145508 1.05639648 4.51953125 2.37109375 C5.79534058 3.10247559 5.79534058 3.10247559 7.09692383 3.84863281 C7.99306396 4.37295898 8.8892041 4.89728516 9.8125 5.4375 C10.73506592 5.97084961 11.65763184 6.50419922 12.6081543 7.05371094 C20.85589625 11.85048208 28.9619085 16.8610787 37 22 C35.51618192 25.90927974 33.51687391 27.19386505 29.92578125 29.21484375 C28.35086914 30.1119104 28.35086914 30.1119104 26.74414062 31.02709961 C25.61169922 31.65753174 24.47925781 32.28796387 23.3125 32.9375 C22.14596252 33.5961632 20.979952 34.2557605 19.81445312 34.91625977 C17.41276391 36.27528097 15.00773151 37.6281027 12.60009766 38.9765625 C9.13144752 40.92172663 5.67971163 42.89560206 2.23046875 44.875 C0.15382535 46.0628139 -1.92298962 47.25032792 -4 48.4375 C-4.97799561 48.99880615 -5.95599121 49.5601123 -6.96362305 50.13842773 C-7.86250244 50.64833252 -8.76138184 51.1582373 -9.6875 51.68359375 C-10.47511719 52.13275146 -11.26273438 52.58190918 -12.07421875 53.04467773 C-14 54 -14 54 -16 54 C-13.2413497 56.96300952 -10.59247613 58.99656025 -7.05078125 60.9453125 C-6.12072266 61.46480469 -5.19066406 61.98429687 -4.23242188 62.51953125 C-3.26884766 63.04933594 -2.30527344 63.57914062 -1.3125 64.125 C0.61080218 65.18516789 2.53152469 66.2500337 4.44921875 67.3203125 C5.29830811 67.78711426 6.14739746 68.25391602 7.0222168 68.73486328 C9 70 9 70 10 72 C9.38181396 72.34667725 8.76362793 72.69335449 8.12670898 73.05053711 C-7.14160207 81.61268337 -7.14160207 81.61268337 -22.19970703 90.53588867 C-28.99986648 94.65325319 -35.94456116 98.51787305 -42.8828125 102.39648438 C-43.81738281 102.92048828 -44.75195312 103.44449219 -45.71484375 103.984375 C-46.61364258 104.4882373 -47.51244141 104.99209961 -48.43847656 105.51123047 C-51.48171882 107.27997725 -54.40924407 109.19322947 -57.30932617 111.18701172 C-59 112 -59 112 -62.375 111.375 C-63.24125 110.92125 -64.1075 110.4675 -65 110 C-65.66 109.67 -66.32 109.34 -67 109 C-67 74.35 -67 39.7 -67 4 C-66.34 3.67 -65.68 3.34 -65 3 C-65 6.3 -65 9.6 -65 13 C-64.34 13 -63.68 13 -63 13 C-63 10.03 -63 7.06 -63 4 C-62.67 4 -62.34 4 -62 4 C-62 8.29 -62 12.58 -62 17 C-61.34 17 -60.68 17 -60 17 C-60 12.05 -60 7.1 -60 2 C-59.67 2 -59.34 2 -59 2 C-58.67 5.63 -58.34 9.26 -58 13 C-57.67 9.37 -57.34 5.74 -57 2 C-56.67 2 -56.34 2 -56 2 C-56 5.63 -56 9.26 -56 13 C-55.34 13 -54.68 13 -54 13 C-54 9.37 -54 5.74 -54 2 C-51.05708354 4.94291646 -51.69197558 8.08354391 -51.68115234 12.02978516 C-51.66608391 13.27380348 -51.66608391 13.27380348 -51.65071106 14.54295349 C-51.61975338 17.29164926 -51.60280916 20.0402471 -51.5859375 22.7890625 C-51.56723596 24.6919337 -51.54766332 26.59479652 -51.5272522 28.49765015 C-51.47581783 33.51174998 -51.43625276 38.52587674 -51.39910889 43.5401001 C-51.35913993 48.65440593 -51.30801526 53.76859869 -51.2578125 58.8828125 C-51.16091945 68.9217957 -51.07655764 78.96084258 -51 89 C-47.53061135 87.06211228 -44.06180061 85.12319447 -40.59350586 83.18334961 C-38.83802811 82.20177404 -37.08210323 81.22099827 -35.32617188 80.24023438 C-34.21435547 79.61826172 -33.10253906 78.99628906 -31.95703125 78.35546875 C-30.42526245 77.49924927 -30.42526245 77.49924927 -28.86254883 76.62573242 C-27.91790771 76.08924072 -26.9732666 75.55274902 -26 75 C-25.07276123 74.47704346 -24.14552246 73.95408691 -23.19018555 73.4152832 C-20.88135136 72.1864616 -20.88135136 72.1864616 -20 70 C-20.84820312 69.74347656 -21.69640625 69.48695313 -22.5703125 69.22265625 C-28.70747498 67.03480676 -37.04653964 63.79803932 -40.19140625 57.68359375 C-40.48489677 54.93037316 -40.24669818 53.47478892 -39 51 C-36.09486763 48.26409864 -32.54565112 46.77282556 -29 45 C-25.95802197 43.28618929 -22.95044062 41.51422793 -19.9375 39.75 C-18.29206385 38.80009292 -16.64622573 37.8508818 -15 36.90234375 C-11.67411248 34.97891544 -8.36274261 33.03350373 -5.0625 31.06640625 C-4.28398682 30.60331055 -3.50547363 30.14021484 -2.70336914 29.66308594 C-1.21859516 28.77807682 0.26407642 27.88952878 1.74438477 26.99707031 C6.77885124 24 6.77885124 24 9 24 C9 23.34 9 22.68 9 22 C8.113125 21.731875 7.22625 21.46375 6.3125 21.1875 C3 20 3 20 0.5 18.3125 C-2.89687165 16.52914238 -4.29280105 17.03647393 -8 18 C-10.8200316 19.36437831 -13.46181335 20.97894 -16.125 22.625 C-17.63020384 23.53125746 -19.1354122 24.43750742 -20.640625 25.34375 C-22.0940051 26.22874786 -23.54714279 27.114144 -25 28 C-27.28595794 29.38514544 -29.57802859 30.75802189 -31.875 32.125 C-32.80054688 32.68445313 -33.72609375 33.24390625 -34.6796875 33.8203125 C-37 35 -37 35 -40 35 C-40 29.72 -40 24.44 -40 19 C-37.96972656 17.83984375 -37.96972656 17.83984375 -35.8984375 16.65625 C-35.021875 16.15504639 -34.1453125 15.65384277 -33.2421875 15.13745117 C-31.32399604 14.04197177 -29.40471581 12.94839672 -27.484375 11.85668945 C-23.18402579 9.40912715 -18.89351728 6.9552503 -14.6640625 4.38671875 C-13.72167725 3.82210937 -13.72167725 3.82210937 -12.76025391 3.24609375 C-11.1050685 2.25068683 -9.45846784 1.24104459 -7.8125 0.23046875 C-4.48605099 -1.22485269 -3.42971676 -0.95403754 0 0 Z " fill="#232122" transform="translate(160,84)"/>
<path d="M0 0 C0 16.5 0 33 0 50 C-3.63 51.98 -7.26 53.96 -11 56 C-13.12282499 57.19021701 -15.24210168 58.38681914 -17.35546875 59.59375 C-18.46092041 60.22490723 -19.56637207 60.85606445 -20.70532227 61.50634766 C-21.86608991 62.17082554 -23.02681487 62.83537799 -24.1875 63.5 C-25.08817703 64.01490997 -25.08817703 64.01490997 -26.00704956 64.54022217 C-35.6793796 70.07022773 -45.3177957 75.65664575 -54.9206543 81.30664062 C-61.21347857 84.99899915 -67.57569924 88.54153692 -74 92 C-74 92.66 -74 93.32 -74 94 C-72.63798182 94.87471834 -71.25959437 95.72397503 -69.875 96.5625 C-68.72644531 97.27599609 -68.72644531 97.27599609 -67.5546875 98.00390625 C-64.2038458 99.3104271 -62.44093497 98.98690068 -59 98 C-57.06217583 96.88233378 -55.16640229 95.68945311 -53.3125 94.4375 C-48.06240072 91.24549207 -44.27935277 90.26645542 -38.1796875 90.4609375 C-36 91 -36 91 -34 94 C-34 94.99 -34 95.98 -34 97 C-34.66 97 -35.32 97 -36 97 C-36.05905518 97.91402588 -36.11811035 98.82805176 -36.17895508 99.76977539 C-37 103 -37 103 -39.22143555 104.98217773 C-40.183479 105.54364502 -41.14552246 106.1051123 -42.13671875 106.68359375 C-43.18923828 107.30041016 -44.24175781 107.91722656 -45.32617188 108.55273438 C-46.43541016 109.17470703 -47.54464844 109.79667969 -48.6875 110.4375 C-49.77740234 111.08654297 -50.86730469 111.73558594 -51.99023438 112.40429688 C-60.08332264 117.04932562 -60.08332264 117.04932562 -64.04443359 116.83618164 C-67.04320822 115.98777563 -69.39346925 114.92869331 -72.08984375 113.375 C-73.0327124 112.83721924 -73.97558105 112.29943848 -74.94702148 111.74536133 C-75.93387939 111.16939209 -76.9207373 110.59342285 -77.9375 110 C-78.95207275 109.41565186 -79.96664551 108.83130371 -81.01196289 108.22924805 C-84.01353735 106.49554929 -87.00700654 104.74845792 -90 103 C-91.61441837 102.06872438 -93.22898553 101.13770663 -94.84375 100.20703125 C-96.20913657 99.41022898 -97.57378434 98.61215864 -98.9375 97.8125 C-99.56325928 97.45091797 -100.18901855 97.08933594 -100.83374023 96.71679688 C-102.2577742 95.86775486 -103.63561929 94.94191844 -105 94 C-105 93.34 -105 92.68 -105 92 C-92.48981675 84.75614918 -79.97454628 77.52515859 -67.375 70.4375 C-58.37237646 65.37166728 -49.41116746 60.2373866 -40.53833008 54.94677734 C-36.08836465 52.30579794 -31.68347706 49.78407439 -26.96875 47.64453125 C-19.91111556 44.75788392 -19.91111556 44.75788392 -15.24951172 39.16308594 C-14.29523149 34.73514115 -14.47867694 30.49641143 -15 26 C-15.58491211 26.33845947 -16.16982422 26.67691895 -16.77246094 27.02563477 C-19.42450447 28.55074389 -22.08693262 30.05672981 -24.75 31.5625 C-25.67039062 32.09552734 -26.59078125 32.62855469 -27.5390625 33.17773438 C-28.87324219 33.92700195 -28.87324219 33.92700195 -30.234375 34.69140625 C-31.05131836 35.15748291 -31.86826172 35.62355957 -32.70996094 36.10375977 C-35.37406937 37.14639751 -36.37831948 37.04212483 -39 36 C-40.94836963 34.86526517 -42.86365853 33.67260454 -44.75 32.4375 C-45.73484375 31.79683594 -46.7196875 31.15617187 -47.734375 30.49609375 C-48.48203125 30.00238281 -49.2296875 29.50867188 -50 29 C-47.58310212 26.30592573 -44.99835145 24.7329107 -41.8359375 22.99609375 C-40.80355957 22.4247168 -39.77118164 21.85333984 -38.70751953 21.26464844 C-37.60778809 20.66168945 -36.50805664 20.05873047 -35.375 19.4375 C-33.10858912 18.18240767 -30.84296716 16.92588968 -28.578125 15.66796875 C-27.46244141 15.04841309 -26.34675781 14.42885742 -25.19726562 13.79052734 C-20.80703815 11.3319195 -16.45761209 8.80851129 -12.125 6.25 C-11.43712402 5.84450928 -10.74924805 5.43901855 -10.04052734 5.02124023 C-1.56806542 0 -1.56806542 0 0 0 Z " fill="#222021" transform="translate(219,111)"/>
<path d="M0 0 C3.70390021 2.02666238 5.65363011 3.48044516 8 7 C8.54543879 10.06594015 8.53376742 12.93218522 8 16 C5.01726094 19.89413155 1.74179677 22.52641692 -3.1484375 23.37109375 C-7.38139331 23.4973398 -10.14342222 23.37350209 -13.5 20.625 C-16.91780278 17.03630708 -17.35864721 15.01786228 -17.27734375 10.03125 C-16.82827898 6.74232492 -15.40046138 5.21095128 -13 3 C-8.58517724 0.154892 -5.22344192 -0.65293024 0 0 Z " fill="#2D2D2D" transform="translate(118,32)"/>
<path d="M0 0 C5.12490674 4.97848083 9.45880106 9.45214027 10.5625 16.6875 C9.78442147 21.26951802 7.9224829 23.55813782 4.25 26.3125 C0.68357277 27.40224165 -2.39622932 27.99693095 -6 27 C-8.83471197 24.68641689 -10.88885436 21.97163792 -13 19 C-13.65548828 18.11054687 -13.65548828 18.11054687 -14.32421875 17.203125 C-17 13.41008772 -17 13.41008772 -17 11 C-15.43945312 9.76318359 -15.43945312 9.76318359 -13.28125 8.3984375 C-12.51425781 7.90859375 -11.74726563 7.41875 -10.95703125 6.9140625 C-10.14621094 6.40617187 -9.33539063 5.89828125 -8.5 5.375 C-7.68917969 4.859375 -6.87835938 4.34375 -6.04296875 3.8125 C-4.0325603 2.53529934 -2.01819603 1.26484563 0 0 Z " fill="#2A2A2A" transform="translate(266,76)"/>
<path d="M0 0 C0.66 0.33 1.32 0.66 2 1 C0.71283353 2.00578589 -0.57988658 3.00446798 -1.875 4 C-2.59429687 4.556875 -3.31359375 5.11375 -4.0546875 5.6875 C-6 7 -6 7 -8 7 C-8.103125 8.11375 -8.20625 9.2275 -8.3125 10.375 C-8.539375 11.57125 -8.76625 12.7675 -9 14 C-9.99 14.66 -10.98 15.32 -12 16 C-12.40992188 15.28972656 -12.81984375 14.57945312 -13.2421875 13.84765625 C-13.78101563 12.92855469 -14.31984375 12.00945312 -14.875 11.0625 C-15.40867188 10.14597656 -15.94234375 9.22945312 -16.4921875 8.28515625 C-17.79712563 5.89299704 -17.79712563 5.89299704 -20 5 C-17.69 8.96 -15.38 12.92 -13 17 C-18 20 -18 20 -23 23 C-23.89332031 23.56074219 -24.78664062 24.12148437 -25.70703125 24.69921875 C-28 26 -28 26 -30 26 C-31.5078125 23.8125 -31.5078125 23.8125 -33.125 21 C-33.66382813 20.071875 -34.20265625 19.14375 -34.7578125 18.1875 C-35.37269531 17.1046875 -35.37269531 17.1046875 -36 16 C-35.6390625 16.69867188 -35.278125 17.39734375 -34.90625 18.1171875 C-34.4421875 19.02726562 -33.978125 19.93734375 -33.5 20.875 C-33.0359375 21.77992188 -32.571875 22.68484375 -32.09375 23.6171875 C-31 26 -31 26 -31 28 C-32.98 28.33 -34.96 28.66 -37 29 C-37.84443568 27.75747321 -38.6751458 26.5056114 -39.5 25.25 C-40.19609375 24.20585937 -40.19609375 24.20585937 -40.90625 23.140625 C-42 21 -42 21 -42 17 C-39.92162143 14.28212033 -38.46613079 13.14846168 -35.19140625 12.10546875 C-31.8500856 10.94807127 -29.45682466 9.44966475 -26.5625 7.4375 C-22.21629586 4.59529566 -19.22040033 2.88892765 -14 3 C-13.34 3.66 -12.68 4.32 -12 5 C-6.71079393 3.10456559 -6.71079393 3.10456559 -1.625 0.75 C-1.08875 0.5025 -0.5525 0.255 0 0 Z " fill="#232122" transform="translate(225,179)"/>
<path d="M0 0 C3.63467079 1.62400184 4.77408696 2.66113044 7 6 C7.67581494 9.73476676 7.80786958 13.41764389 6.0546875 16.8515625 C2.94142363 20.82635851 -0.0179716 22.55664343 -4.91796875 23.28515625 C-9.15074974 23.59487193 -10.54270807 23.37945501 -13.9375 20.5625 C-14.618125 19.716875 -15.29875 18.87125 -16 18 C-16.33 17.67 -16.66 17.34 -17 17 C-17.43838457 13.6181762 -17.47729001 10.37774469 -17 7 C-12.15242869 0.71125883 -7.62548445 -0.88450259 0 0 Z " fill="#2E2E2E" transform="translate(148,25)"/>
<path d="M0 0 C3.57545703 0.02280993 5.54438404 0.46007439 8.3125 2.75 C12.30330515 6.9403454 12.22591061 9.96419243 12.14453125 15.6015625 C11.8183139 18.3264368 11.44687855 19.78532575 9.875 22 C6.44383114 24.66090646 4.31021633 25.46573918 0.03125 25.6796875 C-3.92662514 25.13617648 -5.52256889 23.29992439 -8.1875 20.375 C-10.87472871 15.94570578 -11.02014947 11.41987621 -10.1875 6.375 C-7.75 3.3125 -7.75 3.3125 -5.1875 1.375 C-3.63766739 -0.17483261 -2.15081622 0.09367039 0 0 Z " fill="#353434" transform="translate(280.1875,119.625)"/>
<path d="M0 0 C0.66 0 1.32 0 2 0 C3.18494305 2.01017125 4.34722614 4.0337095 5.5 6.0625 C6.1496875 7.18785156 6.799375 8.31320313 7.46875 9.47265625 C9.1414508 13.32584202 9.4226 15.84528195 9 20 C6.87346639 22.44157562 5.64765539 22.93681411 2.4375 23.25 C-0 23 -0 23 -3 22 C-4.32 24.31 -5.64 26.62 -7 29 C-8.37562854 27.71034824 -9.70766393 26.37310707 -11 25 C-11 23 -11 23 -9.5625 21.5 C-9.046875 21.005 -8.53125 20.51 -8 20 C-6.64560332 17.29120665 -6.93498549 14.99066732 -7 12 C-9.31 12.33 -11.62 12.66 -14 13 C-14 13.66 -14 14.32 -14 15 C-14.66 15 -15.32 15 -16 15 C-16.66 13.02 -17.32 11.04 -18 9 C-17.49025635 8.76289307 -16.9805127 8.52578613 -16.45532227 8.28149414 C-14.15665983 7.21074407 -11.85956706 6.13666805 -9.5625 5.0625 C-8.76005859 4.68931641 -7.95761719 4.31613281 -7.13085938 3.93164062 C-6.36708984 3.57392578 -5.60332031 3.21621094 -4.81640625 2.84765625 C-4.10943604 2.51773682 -3.40246582 2.18781738 -2.67407227 1.84790039 C-1.0108841 1.11465443 -1.0108841 1.11465443 0 0 Z " fill="#302E2F" transform="translate(56,199)"/>
<path d="M0 0 C16.31578947 0 16.31578947 0 20 2.1875 C21.50815882 4.92103786 21.3826201 6.93903917 21 10 C19.625 11.875 19.625 11.875 18 13 C17.34 13 16.68 13 16 13 C16.41572266 13.83144531 16.41572266 13.83144531 16.83984375 14.6796875 C18.2265625 17.453125 19.61328125 20.2265625 21 23 C18.69 23 16.38 23 14 23 C13.525625 21.88625 13.05125 20.7725 12.5625 19.625 C11.74693537 17.73289006 10.92143645 15.84287291 10 14 C6.97065509 13.34227572 6.97065509 13.34227572 4 13 C4 15.97 4 18.94 4 22 C2.02 22 0.04 22 -2 22 C-1.34 14.74 -0.68 7.48 0 0 Z " fill="#201F20" transform="translate(142,267)"/>
<path d="M0 0 C4.73656704 1.77943626 8.98686067 4.16869072 13.37890625 6.66015625 C15.64030048 7.81612976 17.52253273 8.52782388 20 9 C19.34 10.98 18.68 12.96 18 15 C15.56318413 15.50354867 13.12564561 16.00296756 10.6875 16.5 C9.99720703 16.64308594 9.30691406 16.78617188 8.59570312 16.93359375 C5.67475227 17.52625044 2.98891878 18 0 18 C3.2870757 21.81300782 6.39727838 23.22972246 11 25 C10.67 26.65 10.34 28.3 10 30 C5.26210835 28.55676531 1.01141849 26.62773267 -3.375 24.375 C-4.01566406 24.05015625 -4.65632813 23.7253125 -5.31640625 23.390625 C-6.87947501 22.59742593 -8.44000622 21.79922969 -10 21 C-9.50390625 18.14453125 -9.50390625 18.14453125 -8 15 C-5.15857756 13.89314921 -2.88361696 13.22757878 0.0625 12.6875 C4.92301213 12.08267169 4.92301213 12.08267169 9 10 C5.7 8.35 2.4 6.7 -1 5 C-0.67 3.35 -0.34 1.7 0 0 Z " fill="#2C2B2C" transform="translate(261,199)"/>
<path d="M0 0 C1.80817021 2.38322762 3.48044043 4.75782429 5.125 7.25 C5.82689453 8.27287109 5.82689453 8.27287109 6.54296875 9.31640625 C6.98511719 9.98027344 7.42726562 10.64414063 7.8828125 11.328125 C8.28902832 11.9355957 8.69524414 12.54306641 9.11376953 13.16894531 C10 15 10 15 10 19 C6.04872205 20.31709265 2.90615559 19.42504728 -1.0625 18.625 C-1.79533203 18.48578125 -2.52816406 18.3465625 -3.28320312 18.203125 C-8.70453477 17.14773261 -8.70453477 17.14773261 -11 16 C-8.36 19.63 -5.72 23.26 -3 27 C-3.99 28.32 -4.98 29.64 -6 31 C-6.66 31 -7.32 31 -8 31 C-9.55078125 28.83984375 -9.55078125 28.83984375 -11.3125 25.9375 C-14.05902261 21.49020188 -16.909852 17.21383819 -20 13 C-18.609375 11.38671875 -18.609375 11.38671875 -16 10 C-12.65988115 10.20161217 -9.49133137 11.01054578 -6.25 11.8125 C-5.36183594 12.01681641 -4.47367188 12.22113281 -3.55859375 12.43164062 C-1.36799111 12.93807027 0.81715864 13.46126562 3 14 C2.4225 13.30132812 1.845 12.60265625 1.25 11.8828125 C0.5075 10.97273437 -0.235 10.06265625 -1 9.125 C-1.7425 8.22007812 -2.485 7.31515625 -3.25 6.3828125 C-5 4 -5 4 -5 2 C-2 0 -2 0 0 0 Z " fill="#272627" transform="translate(233,241)"/>
<path d="M0 0 C0.66 0 1.32 0 2 0 C3.65 3.3 5.3 6.6 7 10 C10.91654632 8.43338147 14.51384422 6.75182922 18.23046875 4.8046875 C20 4 20 4 22 4 C22.125 6.6875 22.125 6.6875 21 10 C17.84071189 12.08286967 14.49504479 13.56646076 11 15 C11 16.65 11 18.3 11 20 C13.31 20 15.62 20 18 20 C18 21.98 18 23.96 18 26 C10.74 24.68 3.48 23.36 -4 22 C-3.67 20.02 -3.34 18.04 -3 16 C-0.36 16.66 2.28 17.32 5 18 C4.38302681 16.51746733 3.75616104 15.03904826 3.125 13.5625 C2.60292969 12.32693359 2.60292969 12.32693359 2.0703125 11.06640625 C1.1755063 8.84253285 1.1755063 8.84253285 -1 8 C-0.67 5.36 -0.34 2.72 0 0 Z " fill="#302F2F" transform="translate(268,171)"/>
<path d="M0 0 C5.58471058 -0.55847106 9.20031952 -0.16342577 14 3 C16.375 5.6875 16.375 5.6875 18 8 C17.01 9.485 17.01 9.485 16 11 C15.34 11 14.68 11 14 11 C13.443125 10.21625 12.88625 9.4325 12.3125 8.625 C9.45226918 5.3782515 7.16371937 4.88078679 3 4 C5.07177469 6.76236625 6.83960445 8.88809613 9.6875 10.875 C12 13 12 13 13 16.5625 C13 20 13 20 12.0625 21.9375 C8.75795532 23.6398412 5.57824323 23.60429535 2 23 C-2.9356393 20.53218035 -5.27197516 17.61665742 -8 13 C-6.35 12.34 -4.7 11.68 -3 11 C-2.54625 11.78375 -2.0925 12.5675 -1.625 13.375 C-0.11571258 16.03698031 -0.11571258 16.03698031 2 18 C3.98821313 18.39764263 5.98944339 18.73775349 8 19 C6.25066843 15.50133686 4.34912492 13.37274741 1.3125 11 C-1.92885863 8.33989767 -1.92885863 8.33989767 -2.5625 5.3125 C-2 3 -2 3 0 0 Z " fill="#2D2C2C" transform="translate(94,251)"/>
<path d="M0 0 C2.82279106 1.46420284 5.4219379 3.14187546 8 5 C7.34 6.32 6.68 7.64 6 9 C5.34 9 4.68 9 4 9 C3.46375 8.360625 2.9275 7.72125 2.375 7.0625 C-1.00416058 4.12796581 -3.58546572 4.29430229 -8 4 C-4.99230897 7.50897287 -1.82092197 9.25222372 2.29296875 11.16796875 C4 12 4 12 5 13 C5.46506884 18.34829169 5.46506884 18.34829169 3.8125 20.6640625 C0.69700563 22.96039671 -2.44574787 22.51708902 -6.19140625 22.4375 C-10.53920119 21.7602357 -12.74746101 19.89114577 -16 17 C-15.34 15.68 -14.68 14.36 -14 13 C-13.34 13 -12.68 13 -12 13 C-11.46375 13.639375 -10.9275 14.27875 -10.375 14.9375 C-6.99583942 17.87203419 -4.41453428 17.70569771 0 18 C0 17.01 0 16.02 0 15 C-0.61488281 14.81824219 -1.22976562 14.63648438 -1.86328125 14.44921875 C-2.67152344 14.19785156 -3.47976562 13.94648437 -4.3125 13.6875 C-5.11300781 13.44386719 -5.91351563 13.20023438 -6.73828125 12.94921875 C-9.16129639 11.93230566 -10.40853113 11.07998937 -12 9 C-12.75 3 -12.75 3 -10.5 0 C-6.81190853 -1.47523659 -3.70912747 -1.12741464 0 0 Z " fill="#333132" transform="translate(200,30)"/>
<path d="M0 0 C1.78533155 0.05399833 3.56854139 0.18149321 5.34765625 0.33984375 C6.96704102 0.4800293 6.96704102 0.4800293 8.61914062 0.62304688 C10.32360352 0.77870117 10.32360352 0.77870117 12.0625 0.9375 C13.77276367 1.08735352 13.77276367 1.08735352 15.51757812 1.24023438 C18.34550993 1.48871374 21.17290619 1.74218823 24 2 C23.1875 4.4375 23.1875 4.4375 22 7 C18.71023192 8.09658936 17.28696233 7.79953138 14 7 C12.34290525 11.19147496 11.85527514 13.65004555 13 18 C13 22 13 22 12 24 C11.34 24 10.68 24 10 24 C8.4140625 21.8046875 8.4140625 21.8046875 6.625 18.875 C6.00496094 17.8746875 5.38492188 16.874375 4.74609375 15.84375 C4.16988281 14.9053125 3.59367187 13.966875 3 13 C0.6286587 8.86428212 0.6286587 8.86428212 -3 6 C-1.125 1.125 -1.125 1.125 0 0 Z " fill="#2C2C2C" transform="translate(46,87)"/>
<path d="M0 0 C7.59 1.32 15.18 2.64 23 4 C23.33 5.98 23.66 7.96 24 10 C23.27554688 10.59167969 22.55109375 11.18335938 21.8046875 11.79296875 C20.83789062 12.58316406 19.87109375 13.37335938 18.875 14.1875 C17.87339844 15.00476563 16.87179688 15.82203125 15.83984375 16.6640625 C13.68160817 18.43933744 11.55292595 20.23721975 9.4375 22.0625 C7 24 7 24 5 24 C4.67 22.02 4.34 20.04 4 18 C5.65 17.34 7.3 16.68 9 16 C8.67 14.9275 8.34 13.855 8 12.75 C7 9 7 9 7 5 C5.02 5 3.04 5 1 5 C0.67 3.35 0.34 1.7 0 0 Z " fill="#292829" transform="translate(29,175)"/>
<path d="M0 0 C1.32 0.66 2.64 1.32 4 2 C4 5 4 5 2.28515625 6.8671875 C0.80740934 8.2020942 -0.67175126 9.53543764 -2.15234375 10.8671875 C-4.27070966 13.31248937 -4.80570322 14.79147742 -5 18 C-3.47981752 20.43695474 -3.47981752 20.43695474 -1 22 C1.42277664 22.50570488 1.42277664 22.50570488 4 22 C6.26513212 20.12290384 6.26513212 20.12290384 8.1875 17.625 C8.86167969 16.81289062 9.53585938 16.00078125 10.23046875 15.1640625 C10.81441406 14.44992188 11.39835937 13.73578125 12 13 C12.66 12.34 13.32 11.68 14 11 C14.99 12.32 15.98 13.64 17 15 C15.30096736 16.97322811 13.59218437 18.93563103 11.86328125 20.8828125 C10.37183306 22.57749787 8.92759972 24.31369034 7.5 26.0625 C5 28 5 28 1.625 28.1875 C-2.88720843 26.70936276 -5.77229985 24.43740948 -9 21 C-10.5734575 17.85308499 -10.98101264 15.34519216 -10 12 C-7.86291016 9.16888495 -5.54643833 6.67108643 -3.06640625 4.13671875 C-0.96247662 2.17521623 -0.96247662 2.17521623 0 0 Z " fill="#262526" transform="translate(242,52)"/>
<path d="M0 0 C0.96164063 -0.01675781 1.92328125 -0.03351563 2.9140625 -0.05078125 C3.72617188 0.06910156 4.53828125 0.18898437 5.375 0.3125 C7.375 3.3125 7.375 3.3125 7.375 6.3125 C6.715 6.3125 6.055 6.3125 5.375 6.3125 C5.375 7.22 5.375 8.1275 5.375 9.0625 C4.375 12.3125 4.375 12.3125 2.66796875 13.63671875 C-2.59369373 16.41885939 -2.59369373 16.41885939 -5.74609375 16.09375 C-8.88467148 14.78872807 -9.99193768 12.17035906 -11.625 9.3125 C-11.625 8.6525 -11.625 7.9925 -11.625 7.3125 C-12.615 6.9825 -13.605 6.6525 -14.625 6.3125 C-9.67905192 2.1908766 -6.53134286 0.02640705 0 0 Z " fill="#201F20" transform="translate(177.625,201.6875)"/>
<path d="M0 0 C2.375 1 2.375 1 4 3 C4.56153595 7.42209561 4.79893062 9.72171101 2.4375 13.5 C-0.91034349 15.56021138 -3.14014247 15.49125459 -7 15 C-9.90085398 13.35618275 -10.04170295 11.85925254 -11 8.625 C-11 5 -11 5 -8.9375 2.0625 C-5.52047879 -0.33668511 -4.08216478 -0.69483656 0 0 Z " fill="#F1F1F1" transform="translate(146,29)"/>
<path d="M0 0 C0.99 0.33 1.98 0.66 3 1 C3.33 1.99 3.66 2.98 4 4 C0.25 7 0.25 7 -2 7 C0.47531201 12.67865696 4.1126086 17.20732567 8 22 C6.68 23.32 5.36 24.64 4 26 C1.53939655 22.97156498 -0.87203778 19.90610488 -3.25 16.8125 C-3.77078125 16.13832031 -4.2915625 15.46414062 -4.828125 14.76953125 C-6 13 -6 13 -6 11 C-8.64 12.65 -11.28 14.3 -14 16 C-14.66 14.68 -15.32 13.36 -16 12 C-13.40857428 9.96238524 -10.80001022 7.94798723 -8.1875 5.9375 C-7.08051758 5.06641602 -7.08051758 5.06641602 -5.95117188 4.17773438 C-5.23896484 3.63310547 -4.52675781 3.08847656 -3.79296875 2.52734375 C-3.1383667 2.01937256 -2.48376465 1.51140137 -1.80932617 0.98803711 C-1.21224854 0.66198486 -0.6151709 0.33593262 0 0 Z " fill="#282728" transform="translate(89,42)"/>
<path d="M0 0 C2.48038907 3.7205836 2.46337203 5.59796571 2 10 C0.4375 12.4375 0.4375 12.4375 -2 14 C-5.5 14.5625 -5.5 14.5625 -9 14 C-11.94181099 11.43534427 -12.84656921 9.7518109 -13.625 5.9375 C-13 3 -13 3 -10.4375 0.5625 C-6.3319497 -1.30365923 -4.29845323 -1.23993843 0 0 Z " fill="#F3F3F3" transform="translate(119,37)"/>
<path d="M0 0 C1.515625 1.5390625 1.515625 1.5390625 3.25 3.625 C6.34676552 7.27360004 9.57544411 10.65896986 13 14 C12.67 14.99 12.34 15.98 12 17 C11.01 17.33 10.02 17.66 9 18 C7.35 16.35 5.7 14.7 4 13 C3.46890625 13.54269531 2.9378125 14.08539063 2.390625 14.64453125 C1.68421875 15.35996094 0.9778125 16.07539063 0.25 16.8125 C-0.44609375 17.52019531 -1.1421875 18.22789062 -1.859375 18.95703125 C-7.14340344 24 -7.14340344 24 -10 24 C-10.66 22.35 -11.32 20.7 -12 19 C-11.2059375 18.39671875 -10.411875 17.7934375 -9.59375 17.171875 C-8.5728125 16.37265625 -7.551875 15.5734375 -6.5 14.75 C-5.4790625 13.96109375 -4.458125 13.1721875 -3.40625 12.359375 C-2.21515625 11.19148437 -2.21515625 11.19148437 -1 10 C-0.54781326 6.12128967 -0.54781326 6.12128967 -2.5 4.375 C-2.995 3.92125 -3.49 3.4675 -4 3 C-4 2.34 -4 1.68 -4 1 C-2 0 -2 0 0 0 Z " fill="#2C2B2B" transform="translate(71,222)"/>
<path d="M0 0 C2.5625 2.125 2.5625 2.125 4 5 C4.08154726 8.99581592 3.50505321 10.46688828 0.75 13.375 C-2.27540925 15.16274183 -3.56933155 15.70372686 -7 15 C-9.3125 13.5 -9.3125 13.5 -11 11 C-11.63594926 7.48814687 -11.63017266 4.26034531 -10 1 C-6.72212436 -0.63893782 -3.51817423 -0.74884833 0 0 Z " fill="#F3F2F3" transform="translate(285,125)"/>
<path d="M0 0 C2.84744341 1.28976102 3.59079907 2.97985306 4.78515625 5.80859375 C4.84765625 8.87109375 4.84765625 8.87109375 3.78515625 11.80859375 C0.92801163 14.34106285 -0.91895263 15.74537955 -4.77734375 15.93359375 C-8.41283748 14.25567357 -9.91645021 12.09201309 -12.21484375 8.80859375 C-12.21484375 7.81859375 -12.21484375 6.82859375 -12.21484375 5.80859375 C-10.16796875 4.16796875 -10.16796875 4.16796875 -7.46484375 2.55859375 C-6.583125 2.0171875 -5.70140625 1.47578125 -4.79296875 0.91796875 C-2.21484375 -0.19140625 -2.21484375 -0.19140625 0 0 Z " fill="#EFEFEF" transform="translate(267.21484375,83.19140625)"/>
<path d="M0 0 C-1.1018726 2.7970612 -2.23550244 5.4528893 -3.625 8.125 C-5.72766849 12.89034417 -5.2491182 17.8976902 -5 23 C-6.65 23.33 -8.3 23.66 -10 24 C-10.12375 22.72125 -10.2475 21.4425 -10.375 20.125 C-11.7972495 13.34776562 -17.00273506 9.41640204 -22 5 C-19 3 -19 3 -15 3 C-13.61767557 4.62626404 -12.28062485 6.2925002 -11 8 C-10.34 8 -9.68 8 -9 8 C-8.5875 6.865625 -8.175 5.73125 -7.75 4.5625 C-6 1 -6 1 -3.9375 0.0625 C-2.6255171 0.02017797 -1.31266533 0 0 0 Z " fill="#222122" transform="translate(189,264)"/>
<path d="M0 0 C6.6 1.98 13.2 3.96 20 6 C20 7.32 20 8.64 20 10 C16.87709365 9.51421457 14.00419641 9.0013988 11 8 C10.8453125 9.423125 10.8453125 9.423125 10.6875 10.875 C10.0089081 15.73491554 8.4914524 20.33803874 7 25 C5.35 24.67 3.7 24.34 2 24 C3.0388092 17.8887076 4.15730278 11.92295536 6 6 C3.69 5.67 1.38 5.34 -1 5 C-0.67 3.35 -0.34 1.7 0 0 Z " fill="#2E2E2E" transform="translate(117,259)"/>
<path d="M0 0 C1.32 0 2.64 0 4 0 C3.34 2.97 2.68 5.94 2 9 C3.10408203 9.29003906 3.10408203 9.29003906 4.23046875 9.5859375 C5.20628906 9.84632812 6.18210937 10.10671875 7.1875 10.375 C8.15042969 10.63023438 9.11335938 10.88546875 10.10546875 11.1484375 C12.82210207 11.94766296 15.39137175 12.9031362 18 14 C18 15.65 18 17.3 18 19 C5.33029613 15.92482916 5.33029613 15.92482916 0 14 C-0.66 16.31 -1.32 18.62 -2 21 C-3.32 21 -4.64 21 -6 21 C-4.55613874 13.78069368 -2.42211826 6.94889267 0 0 Z " fill="#333333" transform="translate(36,105)"/>
<path d="M0 0 C1.32 0.33 2.64 0.66 4 1 C4 1.66 4 2.32 4 3 C5.3303125 3.4021875 5.3303125 3.4021875 6.6875 3.8125 C10 5 10 5 12.5625 6.5625 C15.09216697 8.05435488 17.11298928 8.5875699 20 9 C19.34 10.65 18.68 12.3 18 14 C15.36 12.68 12.72 11.36 10 10 C9.7525 10.680625 9.505 11.36125 9.25 12.0625 C8.25913014 14.39104417 7.21945876 16.39948594 5.9375 18.5625 C4.4391943 21.22078431 3.47198038 23.0501226 3 26 C1.02 25.34 -0.96 24.68 -3 24 C-3 23.34 -3 22.68 -3 22 C-2.34 22 -1.68 22 -1 22 C-0.6596875 20.7934375 -0.6596875 20.7934375 -0.3125 19.5625 C1.33631588 15.08714261 3.60544412 11.11278682 6 7 C4.824375 6.5359375 4.824375 6.5359375 3.625 6.0625 C1 5 1 5 -1 4 C-0.67 2.68 -0.34 1.36 0 0 Z " fill="#252525" transform="translate(216,36)"/>
<path d="M0 0 C0.99 0.66 1.98 1.32 3 2 C3 2.66 3 3.32 3 4 C1 5.625 1 5.625 -1 7 C-0.71248893 10.21422633 0.09917158 11.09344717 2.50390625 13.359375 C3.51324219 14.14828125 4.52257812 14.9371875 5.5625 15.75 C6.57441406 16.54921875 7.58632812 17.3484375 8.62890625 18.171875 C9.41136719 18.77515625 10.19382812 19.3784375 11 20 C10.34 21.32 9.68 22.64 9 24 C6 24 6 24 3.66015625 21.77734375 C1.92827303 19.88399172 0.19910317 17.98815416 -1.52734375 16.08984375 C-3.74565157 13.74403978 -3.74565157 13.74403978 -6.23828125 14.0625 C-8.54309275 15.28900723 -9.07421053 16.6083772 -10 19 C-10.99 18.67 -11.98 18.34 -13 18 C-13.33 17.01 -13.66 16.02 -14 15 C-13.40832031 14.41992188 -12.81664062 13.83984375 -12.20703125 13.2421875 C-7.90148281 8.98580519 -3.76799131 4.74037617 0 0 Z " fill="#2C2C2C" transform="translate(68,59)"/>
<path d="M0 0 C0.66 0.66 1.32 1.32 2 2 C2.99 1.67 3.98 1.34 5 1 C5.36666667 6.5 5.36666667 6.5 3.625 8.875 C2 10 2 10 0 10 C0.27714844 10.55429687 0.55429688 11.10859375 0.83984375 11.6796875 C2.2265625 14.453125 3.61328125 17.2265625 5 20 C2.69 20 0.38 20 -2 20 C-3.0070238 14.96488101 -2.97387813 11.76052962 -1 7 C-4.63 7 -8.26 7 -12 7 C-12 5.02 -12 3.04 -12 1 C-10.04310341 0.77857745 -8.08438048 0.5732432 -6.125 0.375 C-4.48917969 0.20097656 -4.48917969 0.20097656 -2.8203125 0.0234375 C-1.88960937 0.01570313 -0.95890625 0.00796875 0 0 Z " fill="#2E2D2D" transform="translate(158,270)"/>
<path d="M0 0 C0.87107895 -0.00637985 1.7421579 -0.0127597 2.63963318 -0.01933289 C3.58234573 -0.02044571 4.52505829 -0.02155853 5.49633789 -0.02270508 C6.46301895 -0.02603348 7.42970001 -0.02936188 8.42567444 -0.03279114 C10.47258019 -0.0378595 12.51949423 -0.04019949 14.56640625 -0.04003906 C17.70269343 -0.04222497 20.83862864 -0.06038008 23.97485352 -0.0793457 C25.96118043 -0.08227972 27.94750903 -0.08426446 29.93383789 -0.08520508 C30.87452621 -0.09239059 31.81521454 -0.09957611 32.78440857 -0.10697937 C33.65863968 -0.10390274 34.53287079 -0.10082611 35.43359375 -0.09765625 C36.58703529 -0.09979378 36.58703529 -0.09979378 37.76377869 -0.10197449 C39.78149414 0.14526367 39.78149414 0.14526367 42.78149414 2.14526367 C40.02940512 3.06262668 38.37861313 3.27607171 35.54125977 3.29052734 C34.26478577 3.30009712 34.26478577 3.30009712 32.96252441 3.30986023 C31.58900818 3.31152946 31.58900818 3.31152946 30.18774414 3.31323242 C28.77313904 3.31822502 28.77313904 3.31822502 27.32995605 3.32331848 C25.33610522 3.32838085 23.34224592 3.33072702 21.34838867 3.33056641 C18.29339722 3.33275514 15.23876555 3.35092433 12.18383789 3.36987305 C10.24764121 3.37280662 8.31144281 3.37479166 6.37524414 3.37573242 C5.45956665 3.38291794 4.54388916 3.39010345 3.60046387 3.39750671 C2.7494812 3.39443008 1.89849854 3.39135345 1.02172852 3.38818359 C-0.10054138 3.39032112 -0.10054138 3.39032112 -1.2454834 3.39250183 C-3.21850586 3.14526367 -3.21850586 3.14526367 -6.21850586 1.14526367 C-3.90808955 -0.00994448 -2.57084923 0.01275709 0 0 Z " fill="#3B3B3B" transform="translate(138.218505859375,230.854736328125)"/>
<path d="M0 0 C0.66 0 1.32 0 2 0 C2.33 1.98 2.66 3.96 3 6 C0.69 6.66 -1.62 7.32 -4 8 C-3.34 10.31 -2.68 12.62 -2 15 C-2.99 15.66 -3.98 16.32 -5 17 C-5.66 15.35 -6.32 13.7 -7 12 C-9.31 12.33 -11.62 12.66 -14 13 C-14 13.66 -14 14.32 -14 15 C-14.66 15 -15.32 15 -16 15 C-16.66 13.02 -17.32 11.04 -18 9 C-17.49025635 8.76289307 -16.9805127 8.52578613 -16.45532227 8.28149414 C-14.15665983 7.21074407 -11.85956706 6.13666805 -9.5625 5.0625 C-8.76005859 4.68931641 -7.95761719 4.31613281 -7.13085938 3.93164062 C-6.36708984 3.57392578 -5.60332031 3.21621094 -4.81640625 2.84765625 C-4.10943604 2.51773682 -3.40246582 2.18781738 -2.67407227 1.84790039 C-1.0108841 1.11465443 -1.0108841 1.11465443 0 0 Z " fill="#272727" transform="translate(56,199)"/>
<path d="M0 0 C0.66 0.33 1.32 0.66 2 1 C0.71283353 2.00578589 -0.57988658 3.00446798 -1.875 4 C-2.59429687 4.556875 -3.31359375 5.11375 -4.0546875 5.6875 C-6 7 -6 7 -8 7 C-8.103125 8.11375 -8.20625 9.2275 -8.3125 10.375 C-8.539375 11.57125 -8.76625 12.7675 -9 14 C-9.99 14.66 -10.98 15.32 -12 16 C-12.40992188 15.28972656 -12.81984375 14.57945312 -13.2421875 13.84765625 C-13.78101563 12.92855469 -14.31984375 12.00945312 -14.875 11.0625 C-15.40867188 10.14597656 -15.94234375 9.22945312 -16.4921875 8.28515625 C-17.79712563 5.89299704 -17.79712563 5.89299704 -20 5 C-19.34 6.65 -18.68 8.3 -18 10 C-21 12 -21 12 -24 12 C-24.33 10.35 -24.66 8.7 -25 7 C-21.58661647 3.85968715 -18.58537549 3.25474308 -14 3 C-13.34 3.66 -12.68 4.32 -12 5 C-6.71079393 3.10456559 -6.71079393 3.10456559 -1.625 0.75 C-1.08875 0.5025 -0.5525 0.255 0 0 Z " fill="#1E1E1E" transform="translate(225,179)"/>
<path d="M0 0 C1.78533155 0.05399833 3.56854139 0.18149321 5.34765625 0.33984375 C6.96704102 0.4800293 6.96704102 0.4800293 8.61914062 0.62304688 C10.32360352 0.77870117 10.32360352 0.77870117 12.0625 0.9375 C13.77276367 1.08735352 13.77276367 1.08735352 15.51757812 1.24023438 C18.34550993 1.48871374 21.17290619 1.74218823 24 2 C23.1875 4.4375 23.1875 4.4375 22 7 C18.52674819 8.1577506 15.63932552 8.06866652 12 8 C12 7.34 12 6.68 12 6 C8.01322664 5.2693461 8.01322664 5.2693461 4 5 C1.97022023 6.27219734 1.97022023 6.27219734 1 8 C-0.32 7.34 -1.64 6.68 -3 6 C-1.125 1.125 -1.125 1.125 0 0 Z " fill="#1A1919" transform="translate(46,87)"/>
<path d="M0 0 C5.24142864 -0.54958669 8.76939497 -0.91064772 13.125 2.3125 C16.08272699 6.7596538 15.93477654 11.90396015 15 17 C13.66371607 20.01230106 12.70097241 20.88619551 10 23 C6.75 23 6.75 23 4 22 C3.67 21.34 3.34 20.68 3 20 C4.98 20 6.96 20 9 20 C10.60411966 15.28200099 11.53664069 11.82944218 10 7 C7.3100737 4.21400491 4.78193805 3.52526917 1 3 C0.67 2.01 0.34 1.02 0 0 Z " fill="#222222" transform="translate(277,121)"/>
<path d="M0 0 C0.625 2.5625 0.625 2.5625 1 5 C0.38253906 5.17015625 -0.23492187 5.3403125 -0.87109375 5.515625 C-6.20237137 7.04116563 -11.1807507 8.84332221 -16.1875 11.23046875 C-18 12 -18 12 -20 12 C-20.33 10.35 -20.66 8.7 -21 7 C-17.88036821 5.63321521 -14.75353763 4.28376009 -11.625 2.9375 C-10.73554688 2.54755859 -9.84609375 2.15761719 -8.9296875 1.75585938 C-8.07890625 1.39169922 -7.228125 1.02753906 -6.3515625 0.65234375 C-5.56604004 0.31195068 -4.78051758 -0.02844238 -3.97119141 -0.37915039 C-2 -1 -2 -1 0 0 Z " fill="#262626" transform="translate(285,105)"/>
<path d="M0 0 C0.721875 0.268125 1.44375 0.53625 2.1875 0.8125 C1.341875 1.658125 0.49625 2.50375 -0.375 3.375 C-2.66659114 6.12230529 -2.81017088 6.67508165 -2.875 10.5 C-1.71497756 14.11654055 -1.05085329 15.00283199 2.1875 16.8125 C3.1775 17.4725 4.1675 18.1325 5.1875 18.8125 C2.09020517 19.73021699 -0.59647139 20.29490429 -3.8125 19.8125 C-6.51908384 17.61797256 -7.62473788 15.87300828 -8.234375 12.4296875 C-8.48134603 7.83328229 -8.27918662 5.49252908 -5.625 1.625 C-2.8125 -0.1875 -2.8125 -0.1875 0 0 Z " fill="#272727" transform="translate(138.8125,27.1875)"/>
<path d="M0 0 C5.0640636 2.63753312 9.09336943 5.6514804 13.30078125 9.51171875 C14.94362206 11.07718358 14.94362206 11.07718358 17 12 C16.34 13.65 15.68 15.3 15 17 C10.17847237 14.91409088 6.52798694 11.36226843 2.55859375 7.99609375 C0.09755181 5.84684308 0.09755181 5.84684308 -3 5 C-1.125 1.125 -1.125 1.125 0 0 Z " fill="#303030" transform="translate(246,225)"/>
<path d="M0 0 C-0.061875 0.928125 -0.12375 1.85625 -0.1875 2.8125 C-0.29936957 5.95454422 -0.29936957 5.95454422 1.375 7.8125 C3.00086797 9.06987173 3.00086797 9.06987173 5 10 C5 10.66 5 11.32 5 12 C2.57620326 13.14457068 0.64017887 14 -2.0625 14 C-5.12316119 12.4203039 -6.32658757 9.92847176 -8 7 C-8 6.34 -8 5.68 -8 5 C-8.99 4.67 -9.98 4.34 -11 4 C-4.45754717 -1.33726415 -4.45754717 -1.33726415 0 0 Z " fill="#4C4B4C" transform="translate(174,204)"/>
<path d="M0 0 C2.66666667 6.66666667 5.33333333 13.33333333 8 20 C6.35 20.33 4.7 20.66 3 21 C1.68504458 18.39704724 0.37295014 15.79271967 -0.9375 13.1875 C-1.31068359 12.44951172 -1.68386719 11.71152344 -2.06835938 10.95117188 C-2.42607422 10.23896484 -2.78378906 9.52675781 -3.15234375 8.79296875 C-3.48226318 8.1383667 -3.81218262 7.48376465 -4.15209961 6.80932617 C-5 5 -5 5 -6 2 C-3 0 -3 0 0 0 Z " fill="#2F2F2F" transform="translate(208,257)"/>
<path d="M0 0 C1.32 0.66 2.64 1.32 4 2 C2.2703384 6.20953787 -0.68206745 9.35143576 -3.625 12.75 C-4.140625 13.35199219 -4.65625 13.95398438 -5.1875 14.57421875 C-6.45469135 16.05260866 -7.72685775 17.52673171 -9 19 C-10.32 18.34 -11.64 17.68 -13 17 C-11.2703384 12.79046213 -8.31793255 9.64856424 -5.375 6.25 C-4.859375 5.64800781 -4.34375 5.04601562 -3.8125 4.42578125 C-2.54530865 2.94739134 -1.27314225 1.47326829 0 0 Z " fill="#2D2D2D" transform="translate(87,241)"/>
<path d="M0 0 C0.86625 0.37125 0.86625 0.37125 1.75 0.75 C0.76 2.235 0.76 2.235 -0.25 3.75 C0.1109375 4.37648437 0.471875 5.00296875 0.84375 5.6484375 C1.53984375 6.87433594 1.53984375 6.87433594 2.25 8.125 C2.7140625 8.93710938 3.178125 9.74921875 3.65625 10.5859375 C4.75 12.75 4.75 12.75 4.75 14.75 C2.77 15.08 0.79 15.41 -1.25 15.75 C-2.09443568 14.50747321 -2.9251458 13.2556114 -3.75 12 C-4.2140625 11.30390625 -4.678125 10.6078125 -5.15625 9.890625 C-6.25 7.75 -6.25 7.75 -6.25 3.75 C-3.14750693 -0.34972299 -3.14750693 -0.34972299 0 0 Z " fill="#353334" transform="translate(189.25,192.25)"/>
<path d="M0 0 C0.86625 1.2375 0.86625 1.2375 1.75 2.5 C2.86375 3.7375 2.86375 3.7375 4 5 C5.32 5 6.64 5 8 5 C8.33 6.32 8.66 7.64 9 9 C7.38050958 10.50594681 5.75424026 12.00460668 4.125 13.5 C3.22007813 14.3353125 2.31515625 15.170625 1.3828125 16.03125 C-1 18 -1 18 -3 18 C-3.33 16.02 -3.66 14.04 -4 12 C-2.35 11.34 -0.7 10.68 1 10 C0.67 9.01 0.34 8.02 0 7 C-0.03954234 4.66700175 -0.04401732 2.33291811 0 0 Z " fill="#232222" transform="translate(37,181)"/>
<path d="M0 0 C1.32 0.33 2.64 0.66 4 1 C4.48908297 8.33624454 4.48908297 8.33624454 2.25 11.375 C-1.50118282 14.08418759 -4.07664607 15.26245159 -8.75 15.125 C-9.54921875 15.10695313 -10.3484375 15.08890625 -11.171875 15.0703125 C-11.77515625 15.04710937 -12.3784375 15.02390625 -13 15 C-13.33 14.34 -13.66 13.68 -14 13 C-13.67 12.34 -13.34 11.68 -13 11 C-10.74053416 10.64442669 -8.5100223 10.55669494 -6.2265625 10.44140625 C-3.51966573 9.90477584 -2.62922518 9.20275305 -1 7 C-0.26958147 3.38976901 -0.26958147 3.38976901 0 0 Z " fill="#313131" transform="translate(121,40)"/>
<path d="M0 0 C1.32 0 2.64 0 4 0 C4.66 1.32 5.32 2.64 6 4 C6.33 4 6.66 4 7 4 C7.45496035 9.76283104 5.79099852 14.60568303 4 20 C2.35 19.67 0.7 19.34 -1 19 C0.0388092 12.8887076 1.15730278 6.92295536 3 1 C2.01 0.67 1.02 0.34 0 0 Z " fill="#373737" transform="translate(120,264)"/>
<path d="M0 0 C5.95507399 0.3916035 10.62819824 1.37124595 16 4 C16 5.65 16 7.3 16 9 C14.10174715 8.57312017 12.20646817 8.13300518 10.3125 7.6875 C9.25675781 7.44386719 8.20101562 7.20023437 7.11328125 6.94921875 C4.02424372 6.00739175 1.68182036 4.77627063 -1 3 C-0.67 2.01 -0.34 1.02 0 0 Z " fill="#303030" transform="translate(38,115)"/>
<path d="M0 0 C-0.33 0.99 -0.66 1.98 -1 3 C-5.43795241 4.4053516 -9.32130569 5.29241839 -14 5 C-14.33 5.66 -14.66 6.32 -15 7 C-16.65 6.67 -18.3 6.34 -20 6 C-20 4.68 -20 3.36 -20 2 C-6.3667426 -1.62870159 -6.3667426 -1.62870159 0 0 Z " fill="#242223" transform="translate(273,212)"/>
<path d="M0 0 C1.65 0 3.3 0 5 0 C5.33 1.98 5.66 3.96 6 6 C3.69 7.65 1.38 9.3 -1 11 C-1.33 9.68 -1.66 8.36 -2 7 C-3.32 7.33 -4.64 7.66 -6 8 C-6.33 6.35 -6.66 4.7 -7 3 C-4.69 3 -2.38 3 0 3 C0 2.01 0 1.02 0 0 Z " fill="#3B393A" transform="translate(47,179)"/>
<path d="M0 0 C1.4631783 1.97440927 2.80713064 3.93238871 4.125 6 C4.68380859 6.85851562 4.68380859 6.85851562 5.25390625 7.734375 C6.17550408 9.15221782 7.08855821 10.57560725 8 12 C7.01 13.485 7.01 13.485 6 15 C3.375 15.1875 3.375 15.1875 1 15 C1.66 14.67 2.32 14.34 3 14 C2.4225 13.30132812 1.845 12.60265625 1.25 11.8828125 C0.13625 10.51769531 0.13625 10.51769531 -1 9.125 C-1.7425 8.22007812 -2.485 7.31515625 -3.25 6.3828125 C-5 4 -5 4 -5 2 C-2 0 -2 0 0 0 Z " fill="#302E2F" transform="translate(233,241)"/>
<path d="M0 0 C3.99625208 0.09009264 6.54965798 0.66494579 9.6875 3.3125 C10.82393966 6.72181897 10.55497764 7.31585456 9.25 10.5 C8.96253906 11.21542969 8.67507812 11.93085937 8.37890625 12.66796875 C8.15074219 13.21066406 7.92257813 13.75335938 7.6875 14.3125 C7.3575 14.3125 7.0275 14.3125 6.6875 14.3125 C6.584375 13.19875 6.48125 12.085 6.375 10.9375 C6.148125 9.74125 5.92125 8.545 5.6875 7.3125 C3.0014714 5.52181427 1.0248411 4.65194209 -2 3.6875 C-2.80824219 3.42710938 -3.61648437 3.16671875 -4.44921875 2.8984375 C-5.06410156 2.70507812 -5.67898437 2.51171875 -6.3125 2.3125 C-3.9183839 -0.0816161 -3.27463689 0.01651077 0 0 Z " fill="#303030" transform="translate(143.3125,24.6875)"/>
<path d="M0 0 C1.03789581 1.64333504 2.03567924 3.31243867 3 5 C5.5654594 7.5654594 7.47686668 7.54046087 11 8 C11.33 7.01 11.66 6.02 12 5 C12.33 6.65 12.66 8.3 13 10 C10.03 9.505 10.03 9.505 7 9 C7 9.66 7 10.32 7 11 C8.98 11 10.96 11 13 11 C13 11.33 13 11.66 13 12 C6.93033732 12.41859743 3.79767662 12.14344799 -1 8 C-2.52292064 6.06087744 -3.74032603 4.13175595 -5 2 C-2 0 -2 0 0 0 Z " fill="#313131" transform="translate(91,262)"/>
<path d="M0 0 C1.62490954 -0.02698189 3.24994633 -0.04638757 4.875 -0.0625 C5.77992188 -0.07410156 6.68484375 -0.08570313 7.6171875 -0.09765625 C10 0 10 0 12 1 C11.67 2.65 11.34 4.3 11 6 C7.37 6 3.74 6 0 6 C0 4.02 0 2.04 0 0 Z " fill="#DCDADB" transform="translate(146,271)"/>
<path d="M0 0 C0.66 0 1.32 0 2 0 C2.70125 0.804375 3.4025 1.60875 4.125 2.4375 C7.9032711 5.80508945 10.04012858 5.74780315 15 6 C15.33 6.99 15.66 7.98 16 9 C5.41430867 9.86140345 5.41430867 9.86140345 0.8125 6.5 C-0.115625 5.675 -1.04375 4.85 -2 4 C-1.34 2.68 -0.68 1.36 0 0 Z " fill="#323232" transform="translate(186,43)"/>
<path d="M0 0 C2 2 2 2 2.375 5.3125 C1.93803996 9.60927372 1.1069699 11.06097442 -2 14 C-4.75 15.3125 -4.75 15.3125 -7 16 C-7 15.34 -7 14.68 -7 14 C-7.99 13.67 -8.98 13.34 -10 13 C-9 12 -8 11 -7 10 C-6.360625 9.2575 -5.72125 8.515 -5.0625 7.75 C-4.381875 7.1725 -3.70125 6.595 -3 6 C-0.75 6.25 -0.75 6.25 1 7 C1 5.68 1 4.36 1 3 C0.34 2.67 -0.32 2.34 -1 2 C-0.67 1.34 -0.34 0.68 0 0 Z " fill="#282828" transform="translate(274,87)"/>
<path d="M0 0 C2.0625 0.9375 2.0625 0.9375 3.875 3.75 C5.04318499 6.88565444 5.33200234 7.9368581 4.0625 10.9375 C2.7425 10.9375 1.4225 10.9375 0.0625 10.9375 C-3.9375 4.3125 -3.9375 4.3125 -3.9375 0.9375 C-1.9375 -0.0625 -1.9375 -0.0625 0 0 Z " fill="#EDECEC" transform="translate(55.9375,206.0625)"/>
<path d="M0 0 C1.35827971 1.64639965 2.69254251 3.31295807 4 5 C4.99 5 5.98 5 7 5 C7 5.66 7 6.32 7 7 C5.68 7 4.36 7 3 7 C2.67 8.32 2.34 9.64 2 11 C-0.97 8.03 -3.94 5.06 -7 2 C-4 0 -4 0 0 0 Z " fill="#2C2C2C" transform="translate(174,267)"/>
<path d="M0 0 C6.12704894 5.7958571 8.29874818 9.72522856 9 18 C8.01 17.67 7.02 17.34 6 17 C4.2470538 13.42668659 2.78230674 9.91153372 2 6 C1.34 6 0.68 6 0 6 C0 5.34 0 4.68 0 4 C-0.66 3.67 -1.32 3.34 -2 3 C-1.34 2.01 -0.68 1.02 0 0 Z " fill="#202020" transform="translate(266,76)"/>
<path d="M0 0 C1.32176485 0.90325616 2.63215066 1.82317903 3.9375 2.75 C4.66839844 3.26046875 5.39929688 3.7709375 6.15234375 4.296875 C8.20805399 6.19177915 8.62669176 7.27425729 9 10 C6.3125 10.3125 6.3125 10.3125 3 10 C0.125 7.5 0.125 7.5 -2 5 C-1.34 3.35 -0.68 1.7 0 0 Z " fill="#E9E8E8" transform="translate(93,260)"/>
<path d="M0 0 C0.70125 0.78375 1.4025 1.5675 2.125 2.375 C4.80411752 5.18262843 4.80411752 5.18262843 8.25 6.0625 C9.1575 6.371875 10.065 6.68125 11 7 C11.875 9.125 11.875 9.125 12 11 C8.875 11.4375 8.875 11.4375 5 11 C2.45539468 9.03469844 0.45108434 6.87876409 -1 4 C-0.65625 1.765625 -0.65625 1.765625 0 0 Z " fill="#232323" transform="translate(255,92)"/>
<path d="M0 0 C0.66 0.33 1.32 0.66 2 1 C0.75023244 4.65316671 0.32901247 5.78065836 -3 8 C-5.41015625 8.66796875 -5.41015625 8.66796875 -8.0625 9.1875 C-9.37927734 9.45626953 -9.37927734 9.45626953 -10.72265625 9.73046875 C-13 10 -13 10 -15 9 C-12.54732365 7.46931512 -10.08866106 5.95031377 -7.625 4.4375 C-6.92632812 3.99986328 -6.22765625 3.56222656 -5.5078125 3.11132812 C-3.70814097 2.01249022 -1.85677657 0.99932133 0 0 Z " fill="#2C2A2B" transform="translate(164,174)"/>
<path d="M0 0 C0.66 0 1.32 0 2 0 C3.98 3.96 5.96 7.92 8 12 C6.35 12.33 4.7 12.66 3 13 C2.71125 12.360625 2.4225 11.72125 2.125 11.0625 C1.17176549 8.84793921 1.17176549 8.84793921 -1 8 C-0.67 5.36 -0.34 2.72 0 0 Z " fill="#373737" transform="translate(268,171)"/>
<path d="M0 0 C2.375 1.4375 2.375 1.4375 4 3 C4 3.66 4 4.32 4 5 C3.34 5 2.68 5 2 5 C1.67 5.66 1.34 6.32 1 7 C-0.31823302 6.40844669 -1.62947051 5.80128537 -2.9375 5.1875 C-3.66839844 4.85105469 -4.39929688 4.51460937 -5.15234375 4.16796875 C-7 3 -7 3 -8 0 C-5.05854616 -1.47072692 -3.14695372 -0.75526889 0 0 Z " fill="#E4E2E3" transform="translate(200,34)"/>
<path d="M0 0 C-1.12274762 2.85005166 -2.29433302 5.64753265 -3.5625 8.4375 C-4.87915671 11.7005188 -5.57608396 14.52388851 -6 18 C-7.96947298 14.74772853 -8.15643349 12.68331814 -7.6875 8.9375 C-7.53861328 7.65166016 -7.53861328 7.65166016 -7.38671875 6.33984375 C-7 4 -7 4 -6 1 C-3.90006779 0.25486277 -2.22568901 0 0 0 Z " fill="#2A2929" transform="translate(189,264)"/>
<path d="M0 0 C0.598125 0.185625 1.19625 0.37125 1.8125 0.5625 C4.16408762 1.22093687 4.16408762 1.22093687 7 0 C9.36522558 0.92203709 11.70401807 1.91698965 14 3 C14 3.99 14 4.98 14 6 C6.66666667 6.36666667 6.66666667 6.36666667 3.5 4.625 C2 3 2 3 2 1 C1.34 0.67 0.68 0.34 0 0 Z " fill="#F3F2F2" transform="translate(186,42)"/>
<path d="M0 0 C2.64 0 5.28 0 8 0 C8 0.66 8 1.32 8 2 C8.66 2.33 9.32 2.66 10 3 C8.68 5.31 7.36 7.62 6 10 C3.47650757 6.87567603 1.72743854 3.61939504 0 0 Z " fill="#343334" transform="translate(50,93)"/>
<path d="M0 0 C2.79872437 2.52788007 4.45773019 4.20411134 5 8 C3.02 8.33 1.04 8.66 -1 9 C-3.125 4.375 -3.125 4.375 -2 1 C-1.34 0.67 -0.68 0.34 0 0 Z " fill="#1C1A1B" transform="translate(189,199)"/>
<path d="M0 0 C3.82097239 0.53069061 6.06171403 1.49701566 9 4 C8.34 5.65 7.68 7.3 7 9 C4.13998967 7.71792641 1.92960588 6.50848764 0 4 C0 2.68 0 1.36 0 0 Z " fill="#242424" transform="translate(254,233)"/>
<path d="M0 0 C0.33 0 0.66 0 1 0 C1.19425873 2.79134852 1.38069517 5.58283687 1.5625 8.375 C1.61857422 9.1690625 1.67464844 9.963125 1.73242188 10.78125 C2.11328125 16.7734375 2.11328125 16.7734375 1 19 C-1.31847874 19.7166207 -3.65319703 20.38242027 -6 21 C-6.66 21.33 -7.32 21.66 -8 22 C-8.66 21.34 -9.32 20.68 -10 20 C-9.36191406 19.81308594 -8.72382813 19.62617188 -8.06640625 19.43359375 C-5.09900991 18.25311627 -3.25198775 17.29447809 -1 15 C0.12684901 9.95600921 0.16190606 5.14861264 0 0 Z " fill="#302E2F" transform="translate(204,137)"/>
<path d="M0 0 C3.63 1.32 7.26 2.64 11 4 C9 8 9 8 7 9 C7 7.68 7 6.36 7 5 C4.36 5 1.72 5 -1 5 C-0.67 3.35 -0.34 1.7 0 0 Z " fill="#1B1B1B" transform="translate(117,259)"/>
<path d="M0 0 C6.35714286 0.48901099 6.35714286 0.48901099 9.4375 2.9375 C11 5 11 5 11 7 C11.66 7.33 12.32 7.66 13 8 C8.25 7.25 8.25 7.25 6 5 C5.01 5 4.02 5 3 5 C1.3125 3.625 1.3125 3.625 0 2 C0 1.34 0 0.68 0 0 Z " fill="#E9E8E9" transform="translate(97,255)"/>
<path d="M0 0 C0.33 0.66 0.66 1.32 1 2 C0.0625 4.125 0.0625 4.125 -1 6 C-2.65 6 -4.3 6 -6 6 C-5.01 6.33 -4.02 6.66 -3 7 C-3 7.66 -3 8.32 -3 9 C-8.75 9.125 -8.75 9.125 -11 8 C-10.67 6.35 -10.34 4.7 -10 3 C-9.0925 3.061875 -8.185 3.12375 -7.25 3.1875 C-3.71017358 2.98327924 -2.55068845 2.35448165 0 0 Z " fill="#363435" transform="translate(287,136)"/>
<path d="M0 0 C1.21816406 0.03480469 1.21816406 0.03480469 2.4609375 0.0703125 C3.68683594 0.09738281 3.68683594 0.09738281 4.9375 0.125 C5.87722656 0.15980469 5.87722656 0.15980469 6.8359375 0.1953125 C6.0234375 2.6328125 6.0234375 2.6328125 4.8359375 5.1953125 C1.06969079 6.45072807 -0.53595184 5.56593208 -4.1640625 4.1953125 C-4.1640625 1.13098089 -2.96049401 0.2671926 0 0 Z " fill="#323132" transform="translate(63.1640625,88.8046875)"/>
<path d="M0 0 C1.32 0 2.64 0 4 0 C3.67 2.97 3.34 5.94 3 9 C1.35 8.67 -0.3 8.34 -2 8 C-1.125 1.125 -1.125 1.125 0 0 Z " fill="#2B2B2B" transform="translate(121,275)"/>
<path d="M0 0 C6.52307692 1.35384615 6.52307692 1.35384615 8.9375 4.625 C9.288125 5.40875 9.63875 6.1925 10 7 C8.02 7.99 8.02 7.99 6 9 C5.38125 8.195625 4.7625 7.39125 4.125 6.5625 C2.25835959 3.96125481 2.25835959 3.96125481 0 3 C0 2.01 0 1.02 0 0 Z " fill="#313030" transform="translate(102,253)"/>
<path d="M0 0 C1.65 0 3.3 0 5 0 C5.33 1.32 5.66 2.64 6 4 C3.69 5.98 1.38 7.96 -1 10 C-2.31223496 6.06329512 -1.24296256 3.87511856 0 0 Z " fill="#393838" transform="translate(40,186)"/>
<path d="M0 0 C2.69082872 0.17635452 5.32851446 0.61835921 8 1 C7.34 2.65 6.68 4.3 6 6 C4.35 6 2.7 6 1 6 C0.34 4.35 -0.32 2.7 -1 1 C-0.67 0.67 -0.34 0.34 0 0 Z " fill="#242424" transform="translate(273,207)"/>
<path d="M0 0 C0.66 0.33 1.32 0.66 2 1 C2.625 3.5625 2.625 3.5625 3 6 C1.02 6.33 -0.96 6.66 -3 7 C-3 6.34 -3 5.68 -3 5 C-4.65 4.67 -6.3 4.34 -8 4 C-5.31143836 2.20762558 -3.0466145 1.01553817 0 0 Z " fill="#3C3C3C" transform="translate(283,104)"/>
<path d="M0 0 C2 0.25 2 0.25 4 1 C4.33 1.99 4.66 2.98 5 4 C5.66 4.66 6.32 5.32 7 6 C7 6.99 7 7.98 7 9 C6.34 9 5.68 9 5 9 C5 8.34 5 7.68 5 7 C4.071875 7.309375 4.071875 7.309375 3.125 7.625 C2.42375 7.74875 1.7225 7.8725 1 8 C-1 6 -1 6 -1.1875 3.4375 C-1 1 -1 1 0 0 Z " fill="#202020" transform="translate(189,33)"/>
<path d="M0 0 C0.99 0.33 1.98 0.66 3 1 C2.46930939 4.82097239 1.50298434 7.06171403 -1 10 C-4 6.25 -4 6.25 -4 4 C-2.70766393 2.62689293 -1.37562854 1.28965176 0 0 Z " fill="#2A2929" transform="translate(49,218)"/>
<path d="M0 0 C0.66 0.66 1.32 1.32 2 2 C2.99 1.34 3.98 0.68 5 0 C5.33 1.32 5.66 2.64 6 4 C7.32 4 8.64 4 10 4 C9.67 4.66 9.34 5.32 9 6 C6.6859378 6.73075648 4.35171131 7.40138258 2 8 C0.4375 6.25 0.4375 6.25 -1 4 C-0.6875 1.75 -0.6875 1.75 0 0 Z " fill="#393738" transform="translate(50,213)"/>
<path d="M0 0 C0 1.98 0 3.96 0 6 C-3.3 5.34 -6.6 4.68 -10 4 C-6.58908673 0.88145073 -4.68377325 -0.53528837 0 0 Z " fill="#363636" transform="translate(286,191)"/>
<path d="M0 0 C2.26918869 0.02144115 4.47674319 0.13839224 6.73046875 0.3984375 C6.73046875 0.7284375 6.73046875 1.0584375 6.73046875 1.3984375 C4.42046875 1.7284375 2.11046875 2.0584375 -0.26953125 2.3984375 C-0.26953125 3.0584375 -0.26953125 3.7184375 -0.26953125 4.3984375 C1.38046875 4.3984375 3.03046875 4.3984375 4.73046875 4.3984375 C4.73046875 4.7284375 4.73046875 5.0584375 4.73046875 5.3984375 C3.61671875 5.7078125 2.50296875 6.0171875 1.35546875 6.3359375 C-2.06404675 7.22170233 -2.06404675 7.22170233 -4.26953125 8.3984375 C-4.92953125 7.7384375 -5.58953125 7.0784375 -6.26953125 6.3984375 C-3.49786106 0.61408232 -3.49786106 0.61408232 0 0 Z " fill="#333333" transform="translate(278.26953125,119.6015625)"/>
<path d="M0 0 C0.99 0.33 1.98 0.66 3 1 C3.33 1.99 3.66 2.98 4 4 C2.09598862 5.90401138 0.66574314 6.93520439 -2.046875 7.19921875 C-4.03233273 7.1886578 -6.0169914 7.09915043 -8 7 C-3.04087193 1.86376022 -3.04087193 1.86376022 0 0 Z " fill="#313031" transform="translate(89,42)"/>
<path d="M0 0 C-0.67097672 4.19360449 -2.8558394 7.40334352 -5 11 C-5.33 11 -5.66 11 -6 11 C-7.33521524 4.68807339 -7.33521524 4.68807339 -5.8125 1.5625 C-4 0 -4 0 0 0 Z " fill="#242424" transform="translate(109,35)"/>
<path d="M0 0 C5.5952381 0.5952381 5.5952381 0.5952381 8 3 C7.67 3.66 7.34 4.32 7 5 C5.54119891 4.85892253 4.08296449 4.71197585 2.625 4.5625 C1.40683594 4.44068359 1.40683594 4.44068359 0.1640625 4.31640625 C-2 4 -2 4 -4 3 C-4 2.34 -4 1.68 -4 1 C-3.01 1 -2.02 1 -1 1 C-0.67 0.67 -0.34 0.34 0 0 Z " fill="#2F2D2E" transform="translate(195,39)"/>
<path d="M0 0 C0.33 0 0.66 0 1 0 C1.33 1.65 1.66 3.3 2 5 C2.99 4.34 3.98 3.68 5 3 C5 5.97 5 8.94 5 12 C3.02 12 1.04 12 -1 12 C-0.67 8.04 -0.34 4.08 0 0 Z " fill="#464646" transform="translate(141,277)"/>
<path d="M0 0 C-1.28716647 1.00578589 -2.57988658 2.00446798 -3.875 3 C-4.59429687 3.556875 -5.31359375 4.11375 -6.0546875 4.6875 C-8 6 -8 6 -10 6 C-10.33 6.66 -10.66 7.32 -11 8 C-11.66 7.67 -12.32 7.34 -13 7 C-12.80859375 5.14453125 -12.80859375 5.14453125 -12 3 C-9.78515625 1.69921875 -9.78515625 1.69921875 -7.0625 0.6875 C-6.16660156 0.34074219 -5.27070313 -0.00601563 -4.34765625 -0.36328125 C-2 -1 -2 -1 0 0 Z " fill="#464646" transform="translate(227,180)"/>
<path d="M0 0 C0.556875 0.28875 1.11375 0.5775 1.6875 0.875 C4.08494645 2.0413253 6.51596939 3.0339881 9 4 C8.01 4.66 7.02 5.32 6 6 C6 6.66 6 7.32 6 8 C3.08482708 6.92598892 1.22189824 6.22189824 -1 4 C-0.625 1.875 -0.625 1.875 0 0 Z " fill="#323232" transform="translate(236,71)"/>
<path d="M0 0 C1.32 0.66 2.64 1.32 4 2 C1.375 6.875 1.375 6.875 -2 8 C-2.66 6.35 -3.32 4.7 -4 3 C-2.68 2.01 -1.36 1.02 0 0 Z " fill="#262626" transform="translate(63,238)"/>
<path d="M0 0 C3.44004627 1.14668209 4.26635169 1.87943304 6 5 C5.6875 7.75 5.6875 7.75 5 10 C0.07692308 5.69230769 0.07692308 5.69230769 -0.3125 2.1875 C-0.209375 1.465625 -0.10625 0.74375 0 0 Z " fill="#232122" transform="translate(271,133)"/>
<path d="M0 0 C1.32 0.33 2.64 0.66 4 1 C4.29296875 7.0546875 4.29296875 7.0546875 4 9 C3.01 9.66 2.02 10.32 1 11 C-0.20272819 8.59454362 -0.10071472 7.05003047 -0.0625 4.375 C-0.05347656 3.55773438 -0.04445313 2.74046875 -0.03515625 1.8984375 C-0.02355469 1.27195313 -0.01195313 0.64546875 0 0 Z " fill="#1F1F1F" transform="translate(121,40)"/>
<path d="M0 0 C0.66 0 1.32 0 2 0 C2 2.97 2 5.94 2 9 C0.35 9.33 -1.3 9.66 -3 10 C-2.25 3.375 -2.25 3.375 0 0 Z " fill="#222222" transform="translate(153,31)"/>
<path d="M0 0 C0.66 0.33 1.32 0.66 2 1 C1.67 2.32 1.34 3.64 1 5 C-1.31 5.33 -3.62 5.66 -6 6 C-6.33 5.01 -6.66 4.02 -7 3 C-4.69631264 1.93347808 -2.35981813 0.93578995 0 0 Z " fill="#222021" transform="translate(62,216)"/>
<path d="M0 0 C0.61875 0.474375 1.2375 0.94875 1.875 1.4375 C3.90705546 3.02417441 3.90705546 3.02417441 6 4 C6 4.66 6 5.32 6 6 C1.56923077 8.09230769 1.56923077 8.09230769 -1.3125 7.625 C-1.869375 7.41875 -2.42625 7.2125 -3 7 C-3.33 5.68 -3.66 4.36 -4 3 C-2.68 3.33 -1.36 3.66 0 4 C0 2.68 0 1.36 0 0 Z " fill="#626162" transform="translate(173,210)"/>
<path d="M0 0 C2.0625 0.4375 2.0625 0.4375 4 1 C4.33 2.65 4.66 4.3 5 6 C4.34 6 3.68 6 3 6 C2.67 7.98 2.34 9.96 2 12 C1.34 10.68 0.68 9.36 0 8 C0.66 7.67 1.32 7.34 2 7 C1.01 5.02 0.02 3.04 -1 1 C-0.67 0.67 -0.34 0.34 0 0 Z " fill="#4C4B4B" transform="translate(180,202)"/>
<path d="M0 0 C0.66 0 1.32 0 2 0 C2 0.99 2 1.98 2 3 C3.32 3.66 4.64 4.32 6 5 C2.1496895 7.56687367 0.41430237 6.83288724 -4 6 C-2.7260411 3.96166576 -1.38938077 1.96147874 0 0 Z " fill="#1B191A" transform="translate(275,187)"/>
<path d="M0 0 C1.65 0.33 3.3 0.66 5 1 C3.92598892 3.91517292 3.22189824 5.77810176 1 8 C0.01 7.01 -0.98 6.02 -2 5 C-1.34 3.35 -0.68 1.7 0 0 Z " fill="#282828" transform="translate(221,45)"/>
<path d="M0 0 C2.97 0 5.94 0 9 0 C9.66 1.65 10.32 3.3 11 5 C7.7 4.34 4.4 3.68 1 3 C0.67 2.01 0.34 1.02 0 0 Z " fill="#1B1B1B" transform="translate(277,121)"/>
<path d="M0 0 C1.98 0.495 1.98 0.495 4 1 C4 1.66 4 2.32 4 3 C5.32 3.66 6.64 4.32 8 5 C6.3125 6.1875 6.3125 6.1875 4 7 C1.25 5.625 1.25 5.625 -1 4 C-0.67 2.68 -0.34 1.36 0 0 Z " fill="#353535" transform="translate(216,36)"/>
<path d="M0 0 C2 2 2 2 2.3125 5.5 C2.1578125 7.2325 2.1578125 7.2325 2 9 C-1 11 -1 11 -4 11 C-4.99 10.67 -5.98 10.34 -7 10 C-5.25 7.9375 -5.25 7.9375 -3 6 C-0.75 6.25 -0.75 6.25 1 7 C1 5.68 1 4.36 1 3 C0.34 2.67 -0.32 2.34 -1 2 C-0.67 1.34 -0.34 0.68 0 0 Z " fill="#313131" transform="translate(274,87)"/>
<path d="M0 0 C2.9375 0.75 2.9375 0.75 6 2 C6.875 4.125 6.875 4.125 7 6 C5.35 6.33 3.7 6.66 2 7 C0.5393715 4.35261084 0 3.10551666 0 0 Z " fill="#262626" transform="translate(209,271)"/>
<path d="M0 0 C0.99 0.33 1.98 0.66 3 1 C3 1.66 3 2.32 3 3 C4.98 2.34 6.96 1.68 9 1 C9.33 1.99 9.66 2.98 10 4 C3.6 6.21538462 3.6 6.21538462 0.5625 5.125 C0.046875 4.75375 -0.46875 4.3825 -1 4 C-0.67 2.68 -0.34 1.36 0 0 Z " fill="#353434" transform="translate(252,216)"/>
<path d="M0 0 C2.3431213 0.25561323 4.67843403 0.59270772 7 1 C7.33 1.66 7.66 2.32 8 3 C5 5 5 5 2.3125 4.625 C1.549375 4.41875 0.78625 4.2125 0 4 C0 2.68 0 1.36 0 0 Z " fill="#202020" transform="translate(38,115)"/>
<path d="M0 0 C0 1.98 0 3.96 0 6 C-1.65 6.33 -3.3 6.66 -5 7 C-5 6.01 -5 5.02 -5 4 C-5.66 3.67 -6.32 3.34 -7 3 C-1.125 0 -1.125 0 0 0 Z " fill="#2A2829" transform="translate(217,112)"/>
<path d="M0 0 C0 0.33 0 0.66 0 1 C-1.98 1 -3.96 1 -6 1 C-5.67 2.32 -5.34 3.64 -5 5 C-5.66 5 -6.32 5 -7 5 C-7 4.34 -7 3.68 -7 3 C-7.598125 2.87625 -8.19625 2.7525 -8.8125 2.625 C-11 2 -11 2 -14 0 C-9.02936879 -0.91297308 -4.97063121 -0.91297308 0 0 Z " fill="#1D1B1C" transform="translate(65,90)"/>
<path d="M0 0 C1.32 1.65 2.64 3.3 4 5 C1.525 6.485 1.525 6.485 -1 8 C-1.99 6.02 -2.98 4.04 -4 2 C-2.68 1.34 -1.36 0.68 0 0 Z " fill="#2D2C2D" transform="translate(93,60)"/>
<path d="M0 0 C2 3 2 3 1.8125 5.0625 C1 7 1 7 -2 9 C-2 8.01 -2 7.02 -2 6 C-2.66 5.67 -3.32 5.34 -4 5 C-2.25 1.125 -2.25 1.125 0 0 Z " fill="#353435" transform="translate(68,234)"/>
<path d="M0 0 C0.66 0.33 1.32 0.66 2 1 C2.33 1.99 2.66 2.98 3 4 C3.66 4.33 4.32 4.66 5 5 C3.02 5.66 1.04 6.32 -1 7 C-1.66 6.34 -2.32 5.68 -3 5 C-3 4.01 -3 3.02 -3 2 C-2.01 1.34 -1.02 0.68 0 0 Z " fill="#303030" transform="translate(263,78)"/>
<path d="M0 0 C0.144375 0.61875 0.28875 1.2375 0.4375 1.875 C0.93152225 4.03258322 0.93152225 4.03258322 2 6 C3.32 5.67 4.64 5.34 6 5 C6.33 6.32 6.66 7.64 7 9 C6.01 9.33 5.02 9.66 4 10 C1.7363436 8.59554165 -0.0208685 6.8032087 -2 5 C-1.34 3.35 -0.68 1.7 0 0 Z " fill="#232122" transform="translate(95,255)"/>
<path d="M0 0 C1.32 1.32 2.64 2.64 4 4 C3.01 5.485 3.01 5.485 2 7 C0.35 6.67 -1.3 6.34 -3 6 C-2 4 -1 2 0 0 Z " fill="#2E2D2D" transform="translate(255,63)"/>
<path d="M0 0 C0 0.99 0 1.98 0 3 C-1.98 3 -3.96 3 -6 3 C-6 3.66 -6 4.32 -6 5 C-6.99 5.33 -7.98 5.66 -9 6 C-9 5.01 -9 4.02 -9 3 C-9.66 2.67 -10.32 2.34 -11 2 C-7.36576791 -0.32590854 -4.22911669 -0.16265833 0 0 Z " fill="#3B3B3B" transform="translate(118,32)"/>
<path d="M0 0 C0 0.66 0 1.32 0 2 C-0.99 2.495 -0.99 2.495 -2 3 C-2.65555119 5.52733235 -2.65555119 5.52733235 -3 8 C-3.66 8 -4.32 8 -5 8 C-5.66 6.02 -6.32 4.04 -7 2 C-2.25 0 -2.25 0 0 0 Z " fill="#3B3B3B" transform="translate(45,206)"/>
<path d="M0 0 C5.75 -0.125 5.75 -0.125 8 1 C8 1.99 8 2.98 8 4 C6.02 4 4.04 4 2 4 C1.34 2.68 0.68 1.36 0 0 Z " fill="#201E1F" transform="translate(39,178)"/>
<path d="M0 0 C-1 2 -1 2 -2.84765625 2.6328125 C-3.57855469 2.79523438 -4.30945313 2.95765625 -5.0625 3.125 C-5.79597656 3.29257813 -6.52945312 3.46015625 -7.28515625 3.6328125 C-7.85105469 3.75398437 -8.41695313 3.87515625 -9 4 C-9 3.34 -9 2.68 -9 2 C-10.32 1.67 -11.64 1.34 -13 1 C-11.39796533 0.63631108 -9.79325797 0.28438048 -8.1875 -0.0625 C-7.29417969 -0.25972656 -6.40085937 -0.45695313 -5.48046875 -0.66015625 C-3 -1 -3 -1 0 0 Z " fill="#333132" transform="translate(266,213)"/>
<path d="M0 0 C1.32 0.66 2.64 1.32 4 2 C2.68 2.33 1.36 2.66 0 3 C0 2.01 0 1.02 0 0 Z M-2 3 C-1.34 3 -0.68 3 0 3 C0.45375 3.61875 0.9075 4.2375 1.375 4.875 C3.10279389 7.13442278 4.40813228 7.92750301 7 9 C5.02 9 3.04 9 1 9 C1 8.34 1 7.68 1 7 C-0.32 6.34 -1.64 5.68 -3 5 C-2.67 4.34 -2.34 3.68 -2 3 Z " fill="#464546" transform="translate(272,205)"/>
<path d="M0 0 C2 3 2 3 2 6 C-1 7 -1 7 -4 6 C-3.67 4.35 -3.34 2.7 -3 1 C-2.01 0.67 -1.02 0.34 0 0 Z " fill="#1F1E1F" transform="translate(51,179)"/>
<path d="M0 0 C0 0.66 0 1.32 0 2 C-0.99 2 -1.98 2 -3 2 C-3.33 2.99 -3.66 3.98 -4 5 C-4.66 4.67 -5.32 4.34 -6 4 C-6.33 4.66 -6.66 5.32 -7 6 C-7.66 5.67 -8.32 5.34 -9 5 C-7.35234966 0.05704899 -4.76872479 -0.25776891 0 0 Z " fill="#3B3B3B" transform="translate(197,29)"/>
<path d="M0 0 C2.375 0.25 2.375 0.25 5 1 C6.3125 3.0625 6.3125 3.0625 7 5 C6.34 5.66 5.68 6.32 5 7 C5 6.34 5 5.68 5 5 C4.01 5.33 3.02 5.66 2 6 C2 4.68 2 3.36 2 2 C1.34 1.34 0.68 0.68 0 0 Z " fill="#302E2F" transform="translate(99,261)"/>
<path d="M0 0 C2 1.375 2 1.375 4 3 C4 3.66 4 4.32 4 5 C1 7 1 7 -2 7 C-2.33 5.35 -2.66 3.7 -3 2 C-2.01 1.34 -1.02 0.68 0 0 Z " fill="#313131" transform="translate(203,184)"/>
<path d="M0 0 C4.8 3.44615385 4.8 3.44615385 5.8125 6.25 C5.874375 6.8275 5.93625 7.405 6 8 C4.68 8.33 3.36 8.66 2 9 C0.21742529 5.76908333 0 3.67481998 0 0 Z " fill="#2F2F2F" transform="translate(286,121)"/>
<path d="M0 0 C2.31 0.33 4.62 0.66 7 1 C7 1.99 7 2.98 7 4 C4.69 4 2.38 4 0 4 C-0.33 3.34 -0.66 2.68 -1 2 C-0.67 1.34 -0.34 0.68 0 0 Z " fill="#1B1B1B" transform="translate(108,51)"/>
<path d="M0 0 C0.33 0 0.66 0 1 0 C1.48828125 1.98567708 1.9765625 3.97135417 2.46484375 5.95703125 C2.91010705 7.65683202 3.44433985 9.33301954 4 11 C0.55995373 9.85331791 -0.26635169 9.12056696 -2 6 C-1.58974359 1.58974359 -1.58974359 1.58974359 0 0 Z " fill="#2E2E2E" transform="translate(133,36)"/>
<path d="M0 0 C1.32 0.33 2.64 0.66 4 1 C3.34 2.32 2.68 3.64 2 5 C-0.97 4.67 -3.94 4.34 -7 4 C-7 3.67 -7 3.34 -7 3 C-3.535 2.505 -3.535 2.505 0 2 C0 1.34 0 0.68 0 0 Z " fill="#303030" transform="translate(240,256)"/>
<path d="M0 0 C0.99 0.33 1.98 0.66 3 1 C3.33 3.64 3.66 6.28 4 9 C1.4375 6.75 1.4375 6.75 -1 4 C-0.8125 1.6875 -0.8125 1.6875 0 0 Z " fill="#232323" transform="translate(218,256)"/>
<path d="M0 0 C1.32 0.66 2.64 1.32 4 2 C3.34 3.32 2.68 4.64 2 6 C-0.475 5.01 -0.475 5.01 -3 4 C-2.01 2.68 -1.02 1.36 0 0 Z " fill="#313131" transform="translate(87,241)"/>
<path d="M0 0 C1.32 1.32 2.64 2.64 4 4 C3.67 4.99 3.34 5.98 3 7 C1.0625 6.1875 1.0625 6.1875 -1 5 C-1.33 4.01 -1.66 3.02 -2 2 C-1.34 1.34 -0.68 0.68 0 0 Z " fill="#232122" transform="translate(170,208)"/>
<path d="M0 0 C3.46124816 1.15374939 3.88312583 1.87701971 5.75 4.875 C6.19859375 5.57367188 6.6471875 6.27234375 7.109375 6.9921875 C8 9 8 9 7 12 C5.82767315 10.3790787 4.6622923 8.75313167 3.5 7.125 C2.8503125 6.22007812 2.200625 5.31515625 1.53125 4.3828125 C0 2 0 2 0 0 Z " fill="#CDCDCD" transform="translate(205,184)"/>
<path d="M0 0 C1.65 0.33 3.3 0.66 5 1 C5 1.66 5 2.32 5 3 C2.64561267 4.42944945 1.51967567 5.08661261 -1.25 4.625 C-1.8275 4.41875 -2.405 4.2125 -3 4 C-2.01 2.68 -1.02 1.36 0 0 Z " fill="#1D1D1D" transform="translate(275,108)"/>
<path d="M0 0 C1.52519276 0.08937803 3.04681929 0.24537146 4.5625 0.4375 C5.38878906 0.53933594 6.21507812 0.64117187 7.06640625 0.74609375 C7.70449219 0.82988281 8.34257813 0.91367188 9 1 C9 1.33 9 1.66 9 2 C7.906875 2.0825 6.81375 2.165 5.6875 2.25 C1.96723336 2.63689209 1.96723336 2.63689209 0.0625 5.0625 C-0.288125 5.701875 -0.63875 6.34125 -1 7 C-1.66 6.67 -2.32 6.34 -3 6 C-1.125 1.125 -1.125 1.125 0 0 Z " fill="#444444" transform="translate(46,87)"/>
<path d="M0 0 C1.32 0.66 2.64 1.32 4 2 C4 2.99 4 3.98 4 5 C3.01 5.495 3.01 5.495 2 6 C2 5.01 2 4.02 2 3 C0.35 4.32 -1.3 5.64 -3 7 C-3.66 6.67 -4.32 6.34 -5 6 C-3.35 4.02 -1.7 2.04 0 0 Z " fill="#3B3B3B" transform="translate(242,52)"/>
<path d="M0 0 C2.31 0 4.62 0 7 0 C7.33 0.99 7.66 1.98 8 3 C5.03 3 2.06 3 -1 3 C-0.67 2.01 -0.34 1.02 0 0 Z " fill="#1D1D1D" transform="translate(194,49)"/>
<path d="M0 0 C2.31 0 4.62 0 7 0 C7 0.66 7 1.32 7 2 C5.68 2 4.36 2 3 2 C2.67 3.32 2.34 4.64 2 6 C1.01 5.01 0.02 4.02 -1 3 C-0.67 2.01 -0.34 1.02 0 0 Z " fill="#3D3C3C" transform="translate(174,272)"/>
<path d="M0 0 C1.75 1.4375 1.75 1.4375 3 3 C1.625 4.5 1.625 4.5 0 6 C-0.66 6 -1.32 6 -2 6 C-2.66 4.35 -3.32 2.7 -4 1 C-2.1875 0.3125 -2.1875 0.3125 0 0 Z " fill="#373737" transform="translate(227,266)"/>
<path d="M0 0 C-0.33 1.32 -0.66 2.64 -1 4 C-4 4 -4 4 -5.6875 2.5 C-6.120625 2.005 -6.55375 1.51 -7 1 C-7.33 1.99 -7.66 2.98 -8 4 C-8 2.68 -8 1.36 -8 0 C-4.94736336 -0.98120464 -3.05263664 -0.98120464 0 0 Z " fill="#1C1C1C" transform="translate(212,183)"/>
<path d="M0 0 C0.99 0.66 1.98 1.32 3 2 C3 2.66 3 3.32 3 4 C0 6 0 6 -2.1875 5.625 C-2.785625 5.41875 -3.38375 5.2125 -4 5 C-2.68 3.35 -1.36 1.7 0 0 Z " fill="#353535" transform="translate(68,59)"/>
<path d="M0 0 C1.98 0.66 3.96 1.32 6 2 C4.75 3.5 4.75 3.5 3 5 C1.68 5 0.36 5 -1 5 C-0.67 3.35 -0.34 1.7 0 0 Z " fill="#363636" transform="translate(117,259)"/>
<path d="M0 0 C0.66 0 1.32 0 2 0 C3.75 2.25 3.75 2.25 5 5 C4.1875 7.3125 4.1875 7.3125 3 9 C0.87491756 5.81237635 0.4979837 3.73487777 0 0 Z " fill="#201E1F" transform="translate(49,207)"/>
<path d="M0 0 C1.9375 0.3125 1.9375 0.3125 4 1 C4.33 1.99 4.66 2.98 5 4 C4.34 4.66 3.68 5.32 3 6 C2.67 5.67 2.34 5.34 2 5 C1.34 5.66 0.68 6.32 0 7 C-0.93423645 3.98968256 -1.04449911 3.13349732 0 0 Z " fill="#2C2C2C" transform="translate(210,184)"/>
<path d="M0 0 C2.625 1.4375 2.625 1.4375 5 3 C3.68 3.99 2.36 4.98 1 6 C-0.5 4.625 -0.5 4.625 -2 3 C-2 2.34 -2 1.68 -2 1 C-1.34 0.67 -0.68 0.34 0 0 Z " fill="#282828" transform="translate(165,152)"/>
<path d="M0 0 C2.31 0 4.62 0 7 0 C6.34 1.65 5.68 3.3 5 5 C4.34 5 3.68 5 3 5 C1.375 2.5 1.375 2.5 0 0 Z " fill="#E7E6E7" transform="translate(50,93)"/>
<path d="M0 0 C0.66 0.33 1.32 0.66 2 1 C2.59355614 3.64860427 2.74209269 6.29197322 3 9 C2.01 8.67 1.02 8.34 0 8 C-0.38063221 5.6739143 -0.71269945 3.33944736 -1 1 C-0.67 0.67 -0.34 0.34 0 0 Z " fill="#1D1D1D" transform="translate(272,85)"/>
<path d="M0 0 C0.99 0.66 1.98 1.32 3 2 C2.34 3.65 1.68 5.3 1 7 C-0.32 6.67 -1.64 6.34 -3 6 C-2.42655063 3.13275314 -2.1385485 2.1385485 0 0 Z " fill="#1D1D1D" transform="translate(64,64)"/>
<path d="M0 0 C3.3 0 6.6 0 10 0 C10 0.33 10 0.66 10 1 C7.69 1.33 5.38 1.66 3 2 C3 2.66 3 3.32 3 4 C2.01 4 1.02 4 0 4 C0 2.68 0 1.36 0 0 Z " fill="#2C2C2C" transform="translate(142,267)"/>
<path d="M0 0 C2.475 0.495 2.475 0.495 5 1 C5.33 2.65 5.66 4.3 6 6 C4 5 2 4 0 3 C0 2.01 0 1.02 0 0 Z " fill="#262526" transform="translate(102,253)"/>
<path d="M0 0 C2.97 0.33 5.94 0.66 9 1 C8.01 1.33 7.02 1.66 6 2 C5.67 2.66 5.34 3.32 5 4 C3.35 3.67 1.7 3.34 0 3 C0 2.01 0 1.02 0 0 Z " fill="#1A1819" transform="translate(253,215)"/>
<path d="M0 0 C3 3.75 3 3.75 3 6 C1.02 6.33 -0.96 6.66 -3 7 C-2.01 4.69 -1.02 2.38 0 0 Z " fill="#292728" transform="translate(191,201)"/>
<path d="M0 0 C2.97 0.495 2.97 0.495 6 1 C5.01 2.32 4.02 3.64 3 5 C2.01 4.67 1.02 4.34 0 4 C0 2.68 0 1.36 0 0 Z " fill="#EBEAEB" transform="translate(40,182)"/>
<path d="M0 0 C1.32 0.33 2.64 0.66 4 1 C3.67 1.99 3.34 2.98 3 4 C0.4375 5.1875 0.4375 5.1875 -2 6 C-1.34 4.02 -0.68 2.04 0 0 Z " fill="#ECEAEB" transform="translate(136,153)"/>
<path d="M0 0 C0.66 0.33 1.32 0.66 2 1 C1.01 2.485 1.01 2.485 0 4 C0.33 4.66 0.66 5.32 1 6 C-0.32 6.33 -1.64 6.66 -3 7 C-3 5.68 -3 4.36 -3 3 C-3.66 2.67 -4.32 2.34 -5 2 C-2.625 0.9375 -2.625 0.9375 0 0 Z " fill="#3B3B3B" transform="translate(273,108)"/>
<path d="M0 0 C0.99 0.66 1.98 1.32 3 2 C2.34 3.65 1.68 5.3 1 7 C0.34 7 -0.32 7 -1 7 C-1.33 5.35 -1.66 3.7 -2 2 C-1.34 2 -0.68 2 0 2 C0 1.34 0 0.68 0 0 Z " fill="#333333" transform="translate(57,104)"/>
<path d="M0 0 C1.65 0 3.3 0 5 0 C5.33 1.32 5.66 2.64 6 4 C3.69 4 1.38 4 -1 4 C-0.67 2.68 -0.34 1.36 0 0 Z " fill="#1D1D1D" transform="translate(261,99)"/>
<path d="M0 0 C1.65 0.99 3.3 1.98 5 3 C4.01 3.495 4.01 3.495 3 4 C2.67 4.99 2.34 5.98 2 7 C1.01 6.34 0.02 5.68 -1 5 C-0.67 3.35 -0.34 1.7 0 0 Z " fill="#2E2E2E" transform="translate(105,47)"/>
<path d="M0 0 C0.99 0.66 1.98 1.32 3 2 C3.29296875 4.1640625 3.29296875 4.1640625 3.1875 6.625 C3.16042969 7.44226562 3.13335937 8.25953125 3.10546875 9.1015625 C3.07066406 9.72804688 3.03585938 10.35453125 3 11 C2.67 11 2.34 11 2 11 C1.896875 10.2575 1.79375 9.515 1.6875 8.75 C0.95746496 5.82985982 -0.06789398 4.26812446 -2 2 C-1.34 2 -0.68 2 0 2 C0 1.34 0 0.68 0 0 Z " fill="#3C3C3C" transform="translate(123,37)"/>
<path d="M0 0 C0.66 0 1.32 0 2 0 C2.33 1.32 2.66 2.64 3 4 C1.02 4.99 1.02 4.99 -1 6 C-1.625 4.125 -1.625 4.125 -2 2 C-1.34 1.34 -0.68 0.68 0 0 Z " fill="#1D1B1C" transform="translate(43,186)"/>
<path d="M0 0 C2.97 0.495 2.97 0.495 6 1 C3.63707344 3.52588702 2.33537489 4.88820837 -1 6 C-0.67 4.02 -0.34 2.04 0 0 Z " fill="#2A292A" transform="translate(132,172)"/>
<path d="M0 0 C-0.66 1.65 -1.32 3.3 -2 5 C-3.32 4.34 -4.64 3.68 -6 3 C-6 2.34 -6 1.68 -6 1 C-4 0 -4 0 0 0 Z " fill="#3C3C3C" transform="translate(236,45)"/>
<path d="M0 0 C1.65 0.33 3.3 0.66 5 1 C3.35 2.65 1.7 4.3 0 6 C-0.66 5.01 -1.32 4.02 -2 3 C-1.34 2.01 -0.68 1.02 0 0 Z " fill="#1F1F1F" transform="translate(136,27)"/>
<path d="M0 0 C0.99 0.33 1.98 0.66 3 1 C2.01 2.98 1.02 4.96 0 7 C-0.66 7 -1.32 7 -2 7 C-2.125 4.625 -2.125 4.625 -2 2 C-1.34 1.34 -0.68 0.68 0 0 Z " fill="#2C2C2C" transform="translate(94,252)"/>
<path d="M0 0 C0.33 1.32 0.66 2.64 1 4 C-0.98 4.99 -2.96 5.98 -5 7 C-4.60196439 4.11424181 -4.20990931 3.17810487 -1.9375 1.25 C-1.298125 0.8375 -0.65875 0.425 0 0 Z " fill="#2D2B2C" transform="translate(167,186)"/>
<path d="M0 0 C1.32 0.33 2.64 0.66 4 1 C3.01 1 2.02 1 1 1 C1.66 2.32 2.32 3.64 3 5 C2.34 5.66 1.68 6.32 1 7 C0.01 7 -0.98 7 -2 7 C-2 5.68 -2 4.36 -2 3 C-1.34 3 -0.68 3 0 3 C0 2.01 0 1.02 0 0 Z " fill="#4C4A4B" transform="translate(38,177)"/>
<path d="M0 0 C1.65 0.33 3.3 0.66 5 1 C2.94766315 3.2477975 1.99332739 4.0022242 -1 5 C-1.66 4.34 -2.32 3.68 -3 3 C-2.01 3 -1.02 3 0 3 C0 2.01 0 1.02 0 0 Z " fill="#2B292A" transform="translate(148,132)"/>
<path d="M0 0 C0 0.66 0 1.32 0 2 C-0.99 2 -1.98 2 -3 2 C-3.33 3.32 -3.66 4.64 -4 6 C-5.65 5.67 -7.3 5.34 -9 5 C-2.87096774 0 -2.87096774 0 0 0 Z " fill="#323031" transform="translate(155,84)"/>
<path d="M0 0 C-0.66 1.32 -1.32 2.64 -2 4 C-2.99 4 -3.98 4 -5 4 C-5.66 3.01 -6.32 2.02 -7 1 C-4.50935112 0.31292445 -2.62113708 0 0 0 Z " fill="#333333" transform="translate(79,79)"/>
<path d="M0 0 C0 1.65 0 3.3 0 5 C-1.98 4.34 -3.96 3.68 -6 3 C-6 2.34 -6 1.68 -6 1 C-1.125 0 -1.125 0 0 0 Z " fill="#373737" transform="translate(219,57)"/>
<path d="M0 0 C2.31 0.66 4.62 1.32 7 2 C6.67 2.66 6.34 3.32 6 4 C4.02 4 2.04 4 0 4 C-0.33 3.34 -0.66 2.68 -1 2 C-0.67 1.34 -0.34 0.68 0 0 Z " fill="#181818" transform="translate(137,43)"/>
<path d="M0 0 C1.65 0.99 3.3 1.98 5 3 C4.67 3.99 4.34 4.98 4 6 C3.01 6.33 2.02 6.66 1 7 C0 2.25 0 2.25 0 0 Z " fill="#2C2C2C" transform="translate(119,33)"/>
<path d="M0 0 C1.32 0.33 2.64 0.66 4 1 C3.67 1.99 3.34 2.98 3 4 C1.35 4 -0.3 4 -2 4 C-1.34 2.68 -0.68 1.36 0 0 Z " fill="#1E1E1E" transform="translate(78,252)"/>
<path d="M0 0 C2.0625 0.4375 2.0625 0.4375 4 1 C3.67 1.99 3.34 2.98 3 4 C1.35 4.33 -0.3 4.66 -2 5 C-1.125 1.125 -1.125 1.125 0 0 Z " fill="#1D1D1D" transform="translate(84,245)"/>
<path d="M0 0 C0.99 0.33 1.98 0.66 3 1 C3 1.66 3 2.32 3 3 C3.66 3.33 4.32 3.66 5 4 C4.34 4 3.68 4 3 4 C2.67 4.66 2.34 5.32 2 6 C2 5.34 2 4.68 2 4 C0.68 3.34 -0.64 2.68 -2 2 C-1.34 1.34 -0.68 0.68 0 0 Z " fill="#303030" transform="translate(49,203)"/>
<path d="M0 0 C2.475 0.99 2.475 0.99 5 2 C4.67 2.66 4.34 3.32 4 4 C1.4375 4.625 1.4375 4.625 -1 5 C-0.67 3.35 -0.34 1.7 0 0 Z " fill="#313131" transform="translate(261,199)"/>
<path d="M0 0 C0.66 0 1.32 0 2 0 C1.67 1.98 1.34 3.96 1 6 C-0.32 6 -1.64 6 -3 6 C-3 5.34 -3 4.68 -3 4 C-2.01 4 -1.02 4 0 4 C0 2.68 0 1.36 0 0 Z " fill="#3C3B3C" transform="translate(288,175)"/>
<path d="M0 0 C2 3.75 2 3.75 2 6 C-0.46800047 4.84826645 -2.04783565 3.95216435 -4 2 C-2.68 1.34 -1.36 0.68 0 0 Z " fill="#2D2B2C" transform="translate(118,168)"/>
<path d="M0 0 C1.5 1.375 1.5 1.375 3 3 C3 3.66 3 4.32 3 5 C1.68 5.33 0.36 5.66 -1 6 C-1.33 5.01 -1.66 4.02 -2 3 C-1.34 2.01 -0.68 1.02 0 0 Z " fill="#202020" transform="translate(259,81)"/>
<path d="M0 0 C1.32 1.65 2.64 3.3 4 5 C3.67 5.66 3.34 6.32 3 7 C1.68 6.67 0.36 6.34 -1 6 C-0.67 4.02 -0.34 2.04 0 0 Z " fill="#414141" transform="translate(122,269)"/>
<path d="M0 0 C0 1.32 0 2.64 0 4 C-1.98 4 -3.96 4 -6 4 C-3.33333333 0 -3.33333333 0 0 0 Z " fill="#F8F6F7" transform="translate(158,272)"/>
<path d="M0 0 C0.66 0 1.32 0 2 0 C2.66 1.98 3.32 3.96 4 6 C1.525 5.01 1.525 5.01 -1 4 C-0.67 2.68 -0.34 1.36 0 0 Z " fill="#363636" transform="translate(210,267)"/>
<path d="M0 0 C0 0.66 0 1.32 0 2 C-0.66 2 -1.32 2 -2 2 C-2.33 3.32 -2.66 4.64 -3 6 C-3.33 4.35 -3.66 2.7 -4 1 C-4.99 0.67 -5.98 0.34 -7 0 C-4.3333581 -1.33332095 -2.83319697 -0.67102033 0 0 Z " fill="#181818" transform="translate(162,270)"/>
<path d="M0 0 C0.66 0 1.32 0 2 0 C2.33 1.32 2.66 2.64 3 4 C2.34 4 1.68 4 1 4 C0.67 4.66 0.34 5.32 0 6 C-0.66 4.68 -1.32 3.36 -2 2 C-1.34 2 -0.68 2 0 2 C0 1.34 0 0.68 0 0 Z " fill="#252324" transform="translate(235,247)"/>
<path d="M0 0 C1.98 0.495 1.98 0.495 4 1 C3.34 2.65 2.68 4.3 2 6 C1.01 5.67 0.02 5.34 -1 5 C-0.67 3.35 -0.34 1.7 0 0 Z " fill="#2F2F2F" transform="translate(259,236)"/>
<path d="M0 0 C0.66 0.33 1.32 0.66 2 1 C2.625 3.0625 2.625 3.0625 3 5 C1.68 5.33 0.36 5.66 -1 6 C-1.99 4.68 -2.98 3.36 -4 2 C-2.68 2 -1.36 2 0 2 C0 1.34 0 0.68 0 0 Z " fill="#3E3E3E" transform="translate(59,203)"/>
<path d="M0 0 C1.32 1.32 2.64 2.64 4 4 C3.01 4.99 2.02 5.98 1 7 C-0.0625 5.1875 -0.0625 5.1875 -1 3 C-0.67 2.01 -0.34 1.02 0 0 Z " fill="#292929" transform="translate(269,80)"/>
</svg>
